<?xml version="1.0" encoding="utf-8"?>
<!-- Generator: Adobe Illustrator 17.0.0, SVG Export Plug-In . SVG Version: 6.00 Build 0)  -->
<!DOCTYPE svg PUBLIC "-//W3C//DTD SVG 1.1//EN" "http://www.w3.org/Graphics/SVG/1.1/DTD/svg11.dtd">
<svg version="1.1" id="Layer_1" xmlns="http://www.w3.org/2000/svg" xmlns:xlink="http://www.w3.org/1999/xlink" x="0px" y="0px"
	 width="800px" height="600px" viewBox="0 0 800 600" enable-background="new 0 0 960 650" xml:space="preserve">
<g clip-path="url(#SVGID_2_)" transform="matrix(1,0,0,1,-352,101)" xmlns="http://www.w3.org/2000/svg">
    <use xlink:href="#photo" overflow="visible"></use>
</g><g clip-path="url(#SVGID_4_)" transform="matrix(1,0,0,1,302,-152)" xmlns="http://www.w3.org/2000/svg">
    <use xlink:href="#photo" overflow="visible"></use>
</g><g clip-path="url(#SVGID_6_)" transform="matrix(1,0,0,1,-393,-359)" xmlns="http://www.w3.org/2000/svg">
    <use xlink:href="#photo" overflow="visible"></use>
</g><g clip-path="url(#SVGID_8_)" transform="matrix(1,0,0,1,-179,-283)" xmlns="http://www.w3.org/2000/svg">
    <use xlink:href="#photo" overflow="visible"></use>
</g><g clip-path="url(#SVGID_10_)" transform="matrix(1,0,0,1,-239.137,-228.5475)" xmlns="http://www.w3.org/2000/svg">
    <use xlink:href="#photo" overflow="visible"></use>
</g><g clip-path="url(#SVGID_12_)" transform="matrix(1,0,0,1,-383,-311)" xmlns="http://www.w3.org/2000/svg">
    <use xlink:href="#photo" overflow="visible"></use>
</g><g clip-path="url(#SVGID_14_)" transform="matrix(1,0,0,1,94,207)" xmlns="http://www.w3.org/2000/svg">
    <use xlink:href="#photo" overflow="visible"></use>
</g><g clip-path="url(#SVGID_16_)" transform="matrix(1,0,0,1,301,12)" xmlns="http://www.w3.org/2000/svg">
    <use xlink:href="#photo" overflow="visible"></use>
</g><g clip-path="url(#SVGID_18_)" transform="matrix(1,0,0,1,-323,-41)" xmlns="http://www.w3.org/2000/svg">
    <use xlink:href="#photo" overflow="visible"></use>
</g><g clip-path="url(#SVGID_20_)" transform="matrix(1,0,0,1,498,-207)" xmlns="http://www.w3.org/2000/svg">
    <use xlink:href="#photo" overflow="visible"></use>
</g><g clip-path="url(#SVGID_22_)" transform="matrix(1,0,0,1,211,-241)" xmlns="http://www.w3.org/2000/svg">
    <use xlink:href="#photo" overflow="visible"></use>
</g><g clip-path="url(#SVGID_24_)" transform="matrix(1,0,0,1,194,-55)" xmlns="http://www.w3.org/2000/svg">
    <use xlink:href="#photo" overflow="visible"></use>
</g><g clip-path="url(#SVGID_26_)" transform="matrix(1,0,0,1,116,-211)" xmlns="http://www.w3.org/2000/svg">
    <use xlink:href="#photo" overflow="visible"></use>
</g><g clip-path="url(#SVGID_28_)" transform="matrix(1,0,0,1,13,246)" xmlns="http://www.w3.org/2000/svg">
    <use xlink:href="#photo" overflow="visible"></use>
</g><g clip-path="url(#SVGID_30_)" transform="matrix(1,0,0,1,-203,143)" xmlns="http://www.w3.org/2000/svg">
    <use xlink:href="#photo" overflow="visible"></use>
</g><g clip-path="url(#SVGID_32_)" transform="matrix(1,0,0,1,-462,137)" xmlns="http://www.w3.org/2000/svg">
    <use xlink:href="#photo" overflow="visible"></use>
</g><g clip-path="url(#SVGID_34_)" transform="matrix(1,0,0,1,-390.8118,32.6386)" xmlns="http://www.w3.org/2000/svg">
    <use xlink:href="#photo" overflow="visible"></use>
</g><g clip-path="url(#SVGID_36_)" transform="matrix(1,0,0,1,404,196)" xmlns="http://www.w3.org/2000/svg">
    <use xlink:href="#photo" overflow="visible"></use>
</g><g clip-path="url(#SVGID_38_)" transform="matrix(1,0,0,1,347,254)" xmlns="http://www.w3.org/2000/svg">
    <use xlink:href="#photo" overflow="visible"></use>
</g><g clip-path="url(#SVGID_40_)" transform="matrix(1,0,0,1,38,-148)" xmlns="http://www.w3.org/2000/svg">
    <use xlink:href="#photo" overflow="visible"></use>
</g><g clip-path="url(#SVGID_42_)" transform="matrix(1,0,0,1,223,374)" xmlns="http://www.w3.org/2000/svg">
    <use xlink:href="#photo" overflow="visible"></use>
</g><g clip-path="url(#SVGID_44_)" transform="matrix(1,0,0,1,-85,-136)" xmlns="http://www.w3.org/2000/svg">
    <use xlink:href="#photo" overflow="visible"></use>
</g><g clip-path="url(#SVGID_46_)" transform="matrix(1,0,0,1,45.8914,326.028)" xmlns="http://www.w3.org/2000/svg">
    <use xlink:href="#photo" overflow="visible"></use>
</g><g clip-path="url(#SVGID_48_)" transform="matrix(1,0,0,1,328,-102)" xmlns="http://www.w3.org/2000/svg">
    <use xlink:href="#photo" overflow="visible"></use>
</g><g clip-path="url(#SVGID_50_)" transform="matrix(1,0,0,1,-246,372.3115)" xmlns="http://www.w3.org/2000/svg">
    <use xlink:href="#photo" overflow="visible"></use>
</g>
</svg>

