<svg><g clip-path="url(#SVGID_2_)" transform="matrix(1,0,0,1,-494,-327)" xmlns="http://www.w3.org/2000/svg">
    <use xlink:href="#photo" overflow="visible"></use>
</g><g clip-path="url(#SVGID_4_)" transform="matrix(1,0,0,1,-438,53)" xmlns="http://www.w3.org/2000/svg">
    <use xlink:href="#photo" overflow="visible"></use>
</g><g clip-path="url(#SVGID_6_)" transform="matrix(1,0,0,1,110,128)" xmlns="http://www.w3.org/2000/svg">
    <use xlink:href="#photo" overflow="visible"></use>
</g><g clip-path="url(#SVGID_8_)" transform="matrix(1,0,0,1,-311,150)" xmlns="http://www.w3.org/2000/svg">
    <use xlink:href="#photo" overflow="visible"></use>
</g><g clip-path="url(#SVGID_10_)" transform="matrix(1,0,0,1,186,-343)" xmlns="http://www.w3.org/2000/svg">
    <use xlink:href="#photo" overflow="visible"></use>
</g><g clip-path="url(#SVGID_12_)" transform="matrix(1,0,0,1,-548,-145)" xmlns="http://www.w3.org/2000/svg">
    <use xlink:href="#photo" overflow="visible"></use>
</g><g clip-path="url(#SVGID_14_)" transform="matrix(1,0,0,1,-337,199)" xmlns="http://www.w3.org/2000/svg">
    <use xlink:href="#photo" overflow="visible"></use>
</g><g clip-path="url(#SVGID_16_)" transform="matrix(1,0,0,1,249,207)" xmlns="http://www.w3.org/2000/svg">
    <use xlink:href="#photo" overflow="visible"></use>
</g><g clip-path="url(#SVGID_18_)" transform="matrix(1,0,0,1,-205,49)" xmlns="http://www.w3.org/2000/svg">
    <use xlink:href="#photo" overflow="visible"></use>
</g><g clip-path="url(#SVGID_20_)" transform="matrix(1,0,0,1,554,183)" xmlns="http://www.w3.org/2000/svg">
    <use xlink:href="#photo" overflow="visible"></use>
</g><g clip-path="url(#SVGID_22_)" transform="matrix(1,0,0,1,169,118)" xmlns="http://www.w3.org/2000/svg">
    <use xlink:href="#photo" overflow="visible"></use>
</g><g clip-path="url(#SVGID_24_)" transform="matrix(1,0,0,1,-358,-101)" xmlns="http://www.w3.org/2000/svg">
    <use xlink:href="#photo" overflow="visible"></use>
</g><g clip-path="url(#SVGID_26_)" transform="matrix(1,0,0,1,-147,211)" xmlns="http://www.w3.org/2000/svg">
    <use xlink:href="#photo" overflow="visible"></use>
</g><g clip-path="url(#SVGID_28_)" transform="matrix(1,0,0,1,459,21)" xmlns="http://www.w3.org/2000/svg">
    <use xlink:href="#photo" overflow="visible"></use>
</g><g clip-path="url(#SVGID_30_)" transform="matrix(1,0,0,1,404,-253)" xmlns="http://www.w3.org/2000/svg">
    <use xlink:href="#photo" overflow="visible"></use>
</g><g clip-path="url(#SVGID_32_)" transform="matrix(1,0,0,1,218,-21)" xmlns="http://www.w3.org/2000/svg">
    <use xlink:href="#photo" overflow="visible"></use>
</g><g clip-path="url(#SVGID_34_)" transform="matrix(1,0,0,1,-481,83)" xmlns="http://www.w3.org/2000/svg">
    <use xlink:href="#photo" overflow="visible"></use>
</g><g clip-path="url(#SVGID_36_)" transform="matrix(1,0,0,1,251,243)" xmlns="http://www.w3.org/2000/svg">
    <use xlink:href="#photo" overflow="visible"></use>
</g><g clip-path="url(#SVGID_38_)" transform="matrix(1,0,0,1,-159,-213)" xmlns="http://www.w3.org/2000/svg">
    <use xlink:href="#photo" overflow="visible"></use>
</g><g clip-path="url(#SVGID_40_)" transform="matrix(1,0,0,1,-115,51)" xmlns="http://www.w3.org/2000/svg">
    <use xlink:href="#photo" overflow="visible"></use>
</g><g clip-path="url(#SVGID_42_)" transform="matrix(1,0,0,1,-282,-120)" xmlns="http://www.w3.org/2000/svg">
    <use xlink:href="#photo" overflow="visible"></use>
</g><g clip-path="url(#SVGID_44_)" transform="matrix(1,0,0,1,313,-98)" xmlns="http://www.w3.org/2000/svg">
    <use xlink:href="#photo" overflow="visible"></use>
</g><g clip-path="url(#SVGID_46_)" transform="matrix(1,0,0,1,136,-114)" xmlns="http://www.w3.org/2000/svg">
    <use xlink:href="#photo" overflow="visible"></use>
</g><g clip-path="url(#SVGID_48_)" transform="matrix(1,0,0,1,60,365)" xmlns="http://www.w3.org/2000/svg">
    <use xlink:href="#photo" overflow="visible"></use>
</g><g clip-path="url(#SVGID_50_)" transform="matrix(1,0,0,1,429,-31)" xmlns="http://www.w3.org/2000/svg">
    <use xlink:href="#photo" overflow="visible"></use>
</g></svg> 