<?xml version="1.0" encoding="utf-8"?>
<!-- Generator: Adobe Illustrator 17.0.0, SVG Export Plug-In . SVG Version: 6.00 Build 0)  -->
<!DOCTYPE svg PUBLIC "-//W3C//DTD SVG 1.1//EN" "http://www.w3.org/Graphics/SVG/1.1/DTD/svg11.dtd">
<svg version="1.1" id="Layer_1" xmlns="http://www.w3.org/2000/svg" xmlns:xlink="http://www.w3.org/1999/xlink" x="0px" y="0px"
	 width="800px" height="600px" viewBox="0 0 800 600" enable-background="new 0 0 960 650" xml:space="preserve">
<g clip-path="url(#SVGID_2_)" transform="matrix(1,0,0,1,-463,-41)" xmlns="http://www.w3.org/2000/svg">
    <use xlink:href="#photo" overflow="visible"></use>
</g><g clip-path="url(#SVGID_4_)" transform="matrix(1,0,0,1,212,-142)" xmlns="http://www.w3.org/2000/svg">
    <use xlink:href="#photo" overflow="visible"></use>
</g><g clip-path="url(#SVGID_6_)" transform="matrix(1,0,0,1,293,-262)" xmlns="http://www.w3.org/2000/svg">
    <use xlink:href="#photo" overflow="visible"></use>
</g><g clip-path="url(#SVGID_8_)" transform="matrix(1,0,0,1,489,-213)" xmlns="http://www.w3.org/2000/svg">
    <use xlink:href="#photo" overflow="visible"></use>
</g><g clip-path="url(#SVGID_10_)" transform="matrix(1,0,0,1,-92.137,-287.5475)" xmlns="http://www.w3.org/2000/svg">
    <use xlink:href="#photo" overflow="visible"></use>
</g><g clip-path="url(#SVGID_12_)" transform="matrix(1,0,0,1,234,-302)" xmlns="http://www.w3.org/2000/svg">
    <use xlink:href="#photo" overflow="visible"></use>
</g><g clip-path="url(#SVGID_14_)" transform="matrix(1,0,0,1,200,61)" xmlns="http://www.w3.org/2000/svg">
    <use xlink:href="#photo" overflow="visible"></use>
</g><g clip-path="url(#SVGID_16_)" transform="matrix(1,0,0,1,383,92)" xmlns="http://www.w3.org/2000/svg">
    <use xlink:href="#photo" overflow="visible"></use>
</g><g clip-path="url(#SVGID_18_)" transform="matrix(1,0,0,1,208,-261)" xmlns="http://www.w3.org/2000/svg">
    <use xlink:href="#photo" overflow="visible"></use>
</g><g clip-path="url(#SVGID_20_)" transform="matrix(1,0,0,1,-222,-293)" xmlns="http://www.w3.org/2000/svg">
    <use xlink:href="#photo" overflow="visible"></use>
</g><g clip-path="url(#SVGID_22_)" transform="matrix(1,0,0,1,-228,197)" xmlns="http://www.w3.org/2000/svg">
    <use xlink:href="#photo" overflow="visible"></use>
</g><g clip-path="url(#SVGID_24_)" transform="matrix(1,0,0,1,252,270)" xmlns="http://www.w3.org/2000/svg">
    <use xlink:href="#photo" overflow="visible"></use>
</g><g clip-path="url(#SVGID_26_)" transform="matrix(1,0,0,1,-415,23)" xmlns="http://www.w3.org/2000/svg">
    <use xlink:href="#photo" overflow="visible"></use>
</g><g clip-path="url(#SVGID_28_)" transform="matrix(1,0,0,1,251,210)" xmlns="http://www.w3.org/2000/svg">
    <use xlink:href="#photo" overflow="visible"></use>
</g><g clip-path="url(#SVGID_30_)" transform="matrix(1,0,0,1,-68,284)" xmlns="http://www.w3.org/2000/svg">
    <use xlink:href="#photo" overflow="visible"></use>
</g><g clip-path="url(#SVGID_32_)" transform="matrix(1,0,0,1,-447,-224)" xmlns="http://www.w3.org/2000/svg">
    <use xlink:href="#photo" overflow="visible"></use>
</g><g clip-path="url(#SVGID_34_)" transform="matrix(1,0,0,1,-349.8118,23.6386)" xmlns="http://www.w3.org/2000/svg">
    <use xlink:href="#photo" overflow="visible"></use>
</g><g clip-path="url(#SVGID_36_)" transform="matrix(1,0,0,1,6,-199)" xmlns="http://www.w3.org/2000/svg">
    <use xlink:href="#photo" overflow="visible"></use>
</g><g clip-path="url(#SVGID_38_)" transform="matrix(1,0,0,1,482,93)" xmlns="http://www.w3.org/2000/svg">
    <use xlink:href="#photo" overflow="visible"></use>
</g><g clip-path="url(#SVGID_40_)" transform="matrix(1,0,0,1,213,340)" xmlns="http://www.w3.org/2000/svg">
    <use xlink:href="#photo" overflow="visible"></use>
</g><g clip-path="url(#SVGID_42_)" transform="matrix(1,0,0,1,-417,299)" xmlns="http://www.w3.org/2000/svg">
    <use xlink:href="#photo" overflow="visible"></use>
</g><g clip-path="url(#SVGID_44_)" transform="matrix(1,0,0,1,-453,4)" xmlns="http://www.w3.org/2000/svg">
    <use xlink:href="#photo" overflow="visible"></use>
</g><g clip-path="url(#SVGID_46_)" transform="matrix(1,0,0,1,-100.1086,-150.972)" xmlns="http://www.w3.org/2000/svg">
    <use xlink:href="#photo" overflow="visible"></use>
</g><g clip-path="url(#SVGID_48_)" transform="matrix(1,0,0,1,320,-150)" xmlns="http://www.w3.org/2000/svg">
    <use xlink:href="#photo" overflow="visible"></use>
</g><g clip-path="url(#SVGID_50_)" transform="matrix(1,0,0,1,-228,299.3115)" xmlns="http://www.w3.org/2000/svg">
    <use xlink:href="#photo" overflow="visible"></use>
</g> 
</svg>

