<svg><g clip-path="url(#SVGID_2_)" transform="matrix(1,0,0,1,224,-223)" xmlns="http://www.w3.org/2000/svg">
    <use xlink:href="#photo" overflow="visible"></use>
</g><g clip-path="url(#SVGID_4_)" transform="matrix(1,0,0,1,16,-324)" xmlns="http://www.w3.org/2000/svg">
    <use xlink:href="#photo" overflow="visible"></use>
</g><g clip-path="url(#SVGID_6_)" transform="matrix(1,0,0,1,-44,-320)" xmlns="http://www.w3.org/2000/svg">
    <use xlink:href="#photo" overflow="visible"></use>
</g><g clip-path="url(#SVGID_8_)" transform="matrix(1,0,0,1,-104,-329)" xmlns="http://www.w3.org/2000/svg">
    <use xlink:href="#photo" overflow="visible"></use>
</g><g clip-path="url(#SVGID_10_)" transform="matrix(1,0,0,1,-227,-289)" xmlns="http://www.w3.org/2000/svg">
    <use xlink:href="#photo" overflow="visible"></use>
</g><g clip-path="url(#SVGID_12_)" transform="matrix(1,0,0,1,-429,15)" xmlns="http://www.w3.org/2000/svg">
    <use xlink:href="#photo" overflow="visible"></use>
</g><g clip-path="url(#SVGID_14_)" transform="matrix(1,0,0,1,318,-298)" xmlns="http://www.w3.org/2000/svg">
    <use xlink:href="#photo" overflow="visible"></use>
</g><g clip-path="url(#SVGID_16_)" transform="matrix(1,0,0,1,-330,-311)" xmlns="http://www.w3.org/2000/svg">
    <use xlink:href="#photo" overflow="visible"></use>
</g><g clip-path="url(#SVGID_18_)" transform="matrix(1,0,0,1,348,-320)" xmlns="http://www.w3.org/2000/svg">
    <use xlink:href="#photo" overflow="visible"></use>
</g><g clip-path="url(#SVGID_20_)" transform="matrix(1,0,0,1,417,-61)" xmlns="http://www.w3.org/2000/svg">
    <use xlink:href="#photo" overflow="visible"></use>
</g><g clip-path="url(#SVGID_22_)" transform="matrix(1,0,0,1,-438,-10)" xmlns="http://www.w3.org/2000/svg">
    <use xlink:href="#photo" overflow="visible"></use>
</g><g clip-path="url(#SVGID_24_)" transform="matrix(1,0,0,1,313,222)" xmlns="http://www.w3.org/2000/svg">
    <use xlink:href="#photo" overflow="visible"></use>
</g><g clip-path="url(#SVGID_26_)" transform="matrix(1,0,0,1,255,248)" xmlns="http://www.w3.org/2000/svg">
    <use xlink:href="#photo" overflow="visible"></use>
</g><g clip-path="url(#SVGID_28_)" transform="matrix(1,0,0,1,-316,-59)" xmlns="http://www.w3.org/2000/svg">
    <use xlink:href="#photo" overflow="visible"></use>
</g><g clip-path="url(#SVGID_30_)" transform="matrix(1,0,0,1,425,109)" xmlns="http://www.w3.org/2000/svg">
    <use xlink:href="#photo" overflow="visible"></use>
</g><g clip-path="url(#SVGID_32_)" transform="matrix(1,0,0,1,238,59)" xmlns="http://www.w3.org/2000/svg">
    <use xlink:href="#photo" overflow="visible"></use>
</g><g clip-path="url(#SVGID_34_)" transform="matrix(1,0,0,1,-484,126)" xmlns="http://www.w3.org/2000/svg">
    <use xlink:href="#photo" overflow="visible"></use>
</g><g clip-path="url(#SVGID_36_)" transform="matrix(1,0,0,1,-277,319)" xmlns="http://www.w3.org/2000/svg">
    <use xlink:href="#photo" overflow="visible"></use>
</g><g clip-path="url(#SVGID_38_)" transform="matrix(1,0,0,1,-200,-61)" xmlns="http://www.w3.org/2000/svg">
    <use xlink:href="#photo" overflow="visible"></use>
</g><g clip-path="url(#SVGID_40_)" transform="matrix(1,0,0,1,432,-42)" xmlns="http://www.w3.org/2000/svg">
    <use xlink:href="#photo" overflow="visible"></use>
</g><g clip-path="url(#SVGID_42_)" transform="matrix(1,0,0,1,248,222)" xmlns="http://www.w3.org/2000/svg">
    <use xlink:href="#photo" overflow="visible"></use>
</g><g clip-path="url(#SVGID_44_)" transform="matrix(1,0,0,1,22,333)" xmlns="http://www.w3.org/2000/svg">
    <use xlink:href="#photo" overflow="visible"></use>
</g><g clip-path="url(#SVGID_46_)" transform="matrix(1,0,0,1,-20,317)" xmlns="http://www.w3.org/2000/svg">
    <use xlink:href="#photo" overflow="visible"></use>
</g><g clip-path="url(#SVGID_48_)" transform="matrix(1,0,0,1,-66,315)" xmlns="http://www.w3.org/2000/svg">
    <use xlink:href="#photo" overflow="visible"></use>
</g><g clip-path="url(#SVGID_50_)" transform="matrix(1,0,0,1,-204,303)" xmlns="http://www.w3.org/2000/svg">
    <use xlink:href="#photo" overflow="visible"></use>
</g></svg>