<svg><g clip-path="url(#SVGID_2_)" transform="matrix(1,0,0,1,-336,109)" xmlns="http://www.w3.org/2000/svg">
    <use xlink:href="#photo" overflow="visible"></use>
</g><g clip-path="url(#SVGID_4_)" transform="matrix(1,0,0,1,-474,-48)" xmlns="http://www.w3.org/2000/svg">
    <use xlink:href="#photo" overflow="visible"></use>
</g><g clip-path="url(#SVGID_6_)" transform="matrix(1,0,0,1,-350,-131)" xmlns="http://www.w3.org/2000/svg">
    <use xlink:href="#photo" overflow="visible"></use>
</g><g clip-path="url(#SVGID_8_)" transform="matrix(1,0,0,1,-216,113)" xmlns="http://www.w3.org/2000/svg">
    <use xlink:href="#photo" overflow="visible"></use>
</g><g clip-path="url(#SVGID_10_)" transform="matrix(1,0,0,1,393,130)" xmlns="http://www.w3.org/2000/svg">
    <use xlink:href="#photo" overflow="visible"></use>
</g><g clip-path="url(#SVGID_12_)" transform="matrix(1,0,0,1,221,150)" xmlns="http://www.w3.org/2000/svg">
    <use xlink:href="#photo" overflow="visible"></use>
</g><g clip-path="url(#SVGID_14_)" transform="matrix(1,0,0,1,298,-136)" xmlns="http://www.w3.org/2000/svg">
    <use xlink:href="#photo" overflow="visible"></use>
</g><g clip-path="url(#SVGID_16_)" transform="matrix(1,0,0,1,256,-130)" xmlns="http://www.w3.org/2000/svg">
    <use xlink:href="#photo" overflow="visible"></use>
</g><g clip-path="url(#SVGID_18_)" transform="matrix(1,0,0,1,174,162)" xmlns="http://www.w3.org/2000/svg">
    <use xlink:href="#photo" overflow="visible"></use>
</g><g clip-path="url(#SVGID_20_)" transform="matrix(1,0,0,1,-263,134)" xmlns="http://www.w3.org/2000/svg">
    <use xlink:href="#photo" overflow="visible"></use>
</g><g clip-path="url(#SVGID_22_)" transform="matrix(1,0,0,1,14,-260)" xmlns="http://www.w3.org/2000/svg">
    <use xlink:href="#photo" overflow="visible"></use>
</g><g clip-path="url(#SVGID_24_)" transform="matrix(1,0,0,1,235,-181)" xmlns="http://www.w3.org/2000/svg">
    <use xlink:href="#photo" overflow="visible"></use>
</g><g clip-path="url(#SVGID_26_)" transform="matrix(1,0,0,1,-265,55)" xmlns="http://www.w3.org/2000/svg">
    <use xlink:href="#photo" overflow="visible"></use>
</g><g clip-path="url(#SVGID_28_)" transform="matrix(1,0,0,1,-190,-103)" xmlns="http://www.w3.org/2000/svg">
    <use xlink:href="#photo" overflow="visible"></use>
</g><g clip-path="url(#SVGID_30_)" transform="matrix(1,0,0,1,595,-248)" xmlns="http://www.w3.org/2000/svg">
    <use xlink:href="#photo" overflow="visible"></use>
</g><g clip-path="url(#SVGID_32_)" transform="matrix(1,0,0,1,128,-206)" xmlns="http://www.w3.org/2000/svg">
    <use xlink:href="#photo" overflow="visible"></use>
</g><g clip-path="url(#SVGID_34_)" transform="matrix(1,0,0,1,-140,-194)" xmlns="http://www.w3.org/2000/svg">
    <use xlink:href="#photo" overflow="visible"></use>
</g><g clip-path="url(#SVGID_36_)" transform="matrix(1,0,0,1,278,190)" xmlns="http://www.w3.org/2000/svg">
    <use xlink:href="#photo" overflow="visible"></use>
</g><g clip-path="url(#SVGID_38_)" transform="matrix(1,0,0,1,-330,-45)" xmlns="http://www.w3.org/2000/svg">
    <use xlink:href="#photo" overflow="visible"></use>
</g><g clip-path="url(#SVGID_40_)" transform="matrix(1,0,0,1,-250,-222)" xmlns="http://www.w3.org/2000/svg">
    <use xlink:href="#photo" overflow="visible"></use>
</g><g clip-path="url(#SVGID_42_)" transform="matrix(1,0,0,1,-351,-136)" xmlns="http://www.w3.org/2000/svg">
    <use xlink:href="#photo" overflow="visible"></use>
</g><g clip-path="url(#SVGID_44_)" transform="matrix(1,0,0,1,-104,337)" xmlns="http://www.w3.org/2000/svg">
    <use xlink:href="#photo" overflow="visible"></use>
</g><g clip-path="url(#SVGID_46_)" transform="matrix(1,0,0,1,-322,-89)" xmlns="http://www.w3.org/2000/svg">
    <use xlink:href="#photo" overflow="visible"></use>
</g><g clip-path="url(#SVGID_48_)" transform="matrix(1,0,0,1,441,168)" xmlns="http://www.w3.org/2000/svg">
    <use xlink:href="#photo" overflow="visible"></use>
</g><g clip-path="url(#SVGID_50_)" transform="matrix(1,0,0,1,230,-144)" xmlns="http://www.w3.org/2000/svg">
    <use xlink:href="#photo" overflow="visible"></use>
</g></svg> 