<?xml version="1.0" encoding="utf-8"?>
<!-- Generator: Adobe Illustrator 17.0.0, SVG Export Plug-In . SVG Version: 6.00 Build 0)  -->
<!DOCTYPE svg PUBLIC "-//W3C//DTD SVG 1.1//EN" "http://www.w3.org/Graphics/SVG/1.1/DTD/svg11.dtd">
<svg version="1.1" id="Layer_1" xmlns="http://www.w3.org/2000/svg" xmlns:xlink="http://www.w3.org/1999/xlink" x="0px" y="0px"
	 width="960px" height="650px" viewBox="0 0 960 650" enable-background="new 0 0 960 650" xml:space="preserve">
<g id="PathID_7" transform="matrix(1, 0, 0, 1, 0.5, 0.5)">
	<path fill="#ED2224" d="M358.526,174.5v0.512l0.41,0.768l0.974,7.531c0.274,2.459,0.291,4.952,0.051,7.48
		c-0.239,2.596-1.795,3.877-4.667,3.842l-7.744-0.205c-2.598-0.137-4.684,0.615-6.256,2.254c-1.607,1.503-2.838,3.45-3.692,5.84
		c-0.855,2.322-1.026,4.662-0.513,7.019c0.308,1.332,1.111,2.527,2.41,3.586c1.949,1.537,4.188,2.169,6.718,1.896l7.333-0.461
		c2.667-0.137,4.632,0.888,5.897,3.074c0.855,1.4,1.265,3.091,1.231,5.072c-0.103,2.527-0.41,5.004-0.923,7.429
		c-0.342,1.537-0.513,3.023-0.513,4.457l-20.103,0.256c-2.496-0.034-4.65,0.188-6.462,0.666c-1.846,0.444-3.094,1.452-3.744,3.023
		c-0.615,1.503-0.547,3.467,0.205,5.892c0.718,2.391,0.103,3.859-1.846,4.406c-2.359,0.615-4.82,0.956-7.385,1.025h-7.538
		c-3.077-0.068-4.41-1.212-4-3.433c0.41-2.254,1.077-4.338,2-6.25c0.923-1.913,0.359-3.569-1.692-4.969
		c-2.12-1.469-4.41-2.066-6.872-1.793l-22.051,1.434H279.5V174.5H358.526"/>
	<path fill="none" stroke="#010101" stroke-linecap="round" stroke-linejoin="round" stroke-miterlimit="3" d="M358.526,175.012
		l0.41,0.768l0.974,7.531c0.274,2.459,0.291,4.952,0.051,7.48c-0.239,2.596-1.795,3.877-4.667,3.842l-7.744-0.205
		c-2.598-0.137-4.684,0.615-6.256,2.254c-1.607,1.503-2.838,3.45-3.692,5.84c-0.855,2.322-1.026,4.662-0.513,7.019
		c0.308,1.332,1.111,2.527,2.41,3.586c1.949,1.537,4.188,2.169,6.718,1.896l7.333-0.461c2.667-0.137,4.632,0.888,5.897,3.074
		c0.855,1.4,1.265,3.091,1.231,5.072c-0.103,2.527-0.41,5.004-0.923,7.429c-0.342,1.537-0.513,3.023-0.513,4.457l-20.103,0.256
		c-2.496-0.034-4.65,0.188-6.462,0.666c-1.846,0.444-3.094,1.452-3.744,3.023c-0.615,1.503-0.547,3.467,0.205,5.892
		c0.718,2.391,0.103,3.859-1.846,4.406c-2.359,0.615-4.82,0.956-7.385,1.025h-7.538c-3.077-0.068-4.41-1.212-4-3.433
		c0.41-2.254,1.077-4.338,2-6.25c0.923-1.913,0.359-3.569-1.692-4.969c-2.12-1.469-4.41-2.066-6.872-1.793l-22.051,1.434"/>
	<path fill="none" stroke="#010101" stroke-linecap="round" stroke-linejoin="round" stroke-miterlimit="3" d="M279.5,234.851V174.5
		h79.026"/>
</g>
<g id="PathID_8" transform="matrix(1, 0, 0, 1, -55.35, 0.5)">
	<path fill="#ED2224" d="M414.22,174.5h79.692l0.051,0.512l0.103,0.41c0,2.493,0.12,4.969,0.359,7.429l0.615,3.535
		c0.513,2.186,1.47,4.286,2.872,6.301c1.47,2.049,3.521,2.954,6.154,2.715c2.667-0.307,4.957,0.256,6.872,1.691
		c1.949,1.434,2.786,3.518,2.513,6.25c-0.239,2.596-0.786,4.918-1.641,6.967c-0.889,2.186-2.701,3.193-5.436,3.023l-7.538-0.154
		c-2.564,0.034-4.12,1.554-4.667,4.56c-0.444,2.391-0.752,4.816-0.923,7.275c-0.205,2.459-0.308,4.969-0.308,7.531v1.383
		l-2.923-0.051c-2.496-0.068-4.991-0.085-7.487-0.051l-7.128-0.205c-2.632-0.205-5.026,0.188-7.179,1.178
		c-2.427,1.025-3.299,2.886-2.615,5.584c0.581,2.22,0.513,4.508-0.205,6.865c-0.205,0.512-0.496,0.82-0.872,0.922l-7.385,0.82
		l-7.333-0.256c-2.359-0.171-4.479-1.025-6.359-2.562c-0.752-2.527-0.581-5.226,0.513-8.095c1.06-2.903,0.103-4.457-2.872-4.662
		l-8.205-0.307l-15.744,1.486h-2.205c0-1.434,0.171-2.92,0.513-4.457c0.513-2.425,0.82-4.901,0.923-7.429
		c0.034-1.981-0.376-3.672-1.231-5.072c-1.265-2.186-3.231-3.21-5.897-3.074l-7.333,0.461c-2.53,0.273-4.769-0.359-6.718-1.896
		c-1.299-1.059-2.103-2.254-2.41-3.586c-0.513-2.357-0.342-4.696,0.513-7.019c0.855-2.391,2.085-4.338,3.692-5.84
		c1.573-1.639,3.658-2.391,6.256-2.254l7.744,0.205c2.872,0.034,4.427-1.247,4.667-3.842c0.239-2.527,0.222-5.021-0.051-7.48
		l-0.974-7.531l-0.41-0.768V174.5"/>
	<path fill="none" stroke="#010101" stroke-linecap="round" stroke-linejoin="round" stroke-miterlimit="3" d="M414.22,174.5h79.692
		l0.051,0.512l0.103,0.41c0,2.493,0.12,4.969,0.359,7.429l0.615,3.535c0.513,2.186,1.47,4.286,2.872,6.301
		c1.47,2.049,3.521,2.954,6.154,2.715c2.667-0.307,4.957,0.256,6.872,1.691c1.949,1.434,2.786,3.518,2.513,6.25
		c-0.239,2.596-0.786,4.918-1.641,6.967c-0.889,2.186-2.701,3.193-5.436,3.023l-7.538-0.154c-2.564,0.034-4.12,1.554-4.667,4.56
		c-0.444,2.391-0.752,4.816-0.923,7.275c-0.205,2.459-0.308,4.969-0.308,7.531v1.383l-2.923-0.051
		c-2.496-0.068-4.991-0.085-7.487-0.051l-7.128-0.205c-2.632-0.205-5.026,0.188-7.179,1.178c-2.427,1.025-3.299,2.886-2.615,5.584
		c0.581,2.22,0.513,4.508-0.205,6.865c-0.205,0.512-0.496,0.82-0.872,0.922l-7.385,0.82l-7.333-0.256
		c-2.359-0.171-4.479-1.025-6.359-2.562c-0.752-2.527-0.581-5.226,0.513-8.095c1.06-2.903,0.103-4.457-2.872-4.662l-8.205-0.307
		l-15.744,1.486h-2.205c0-1.434,0.171-2.92,0.513-4.457c0.513-2.425,0.82-4.901,0.923-7.429c0.034-1.981-0.376-3.672-1.231-5.072
		c-1.265-2.186-3.231-3.21-5.897-3.074l-7.333,0.461c-2.53,0.273-4.769-0.359-6.718-1.896c-1.299-1.059-2.103-2.254-2.41-3.586
		c-0.513-2.357-0.342-4.696,0.513-7.019c0.855-2.391,2.085-4.338,3.692-5.84c1.573-1.639,3.658-2.391,6.256-2.254l7.744,0.205
		c2.872,0.034,4.427-1.247,4.667-3.842c0.239-2.527,0.222-5.021-0.051-7.48l-0.974-7.531l-0.41-0.768"/>
</g>
<g id="PathID_9" transform="matrix(1, 0, 0, 1, -153.3, 0.5)">
	<path fill="#ED2224" d="M672.857,174.5v0.512l0.974,7.633c0.376,2.527,0.598,5.226,0.667,8.095c0.034,2.869-1.299,4.662-4,5.379
		l-8.205-0.871c-2.735-0.546-4.889,0.102-6.462,1.947c-1.504,1.776-2.325,3.877-2.462,6.301c-0.205,2.527,0.086,4.935,0.872,7.224
		c0.444,1.366,1.214,2.357,2.308,2.971c1.368,0.786,3.094,1.076,5.18,0.871l8.513-0.41c3.248,0,4.94,1.178,5.077,3.535
		c0.103,2.254,0.034,4.645-0.205,7.172c-0.273,2.493-0.667,4.867-1.18,7.121l-0.513,2.766l-20.359-0.307l-1.949,0.154
		c-2.735-0.273-5.026,0.444-6.872,2.152c-1.538,1.366-2.068,2.698-1.59,3.996l1.897,5.021c0.786,2.015,0.068,3.347-2.154,3.996
		l-6.974,0.717l-8.718-1.076c-3.385-0.615-5.145-1.981-5.282-4.099c-0.171-2.186-0.068-4.423,0.308-6.711
		c0.342-2.322-1.009-3.569-4.051-3.74l-26.308-0.922v-1.383c0-2.562,0.103-5.072,0.308-7.531c0.171-2.459,0.479-4.884,0.923-7.275
		c0.547-3.006,2.103-4.525,4.667-4.56l7.538,0.154c2.735,0.171,4.547-0.837,5.436-3.023c0.855-2.049,1.402-4.372,1.641-6.967
		c0.273-2.732-0.564-4.816-2.513-6.25c-1.915-1.434-4.205-1.998-6.872-1.691c-2.633,0.239-4.684-0.666-6.154-2.715
		c-1.402-2.015-2.359-4.116-2.872-6.301l-0.615-3.535c-0.239-2.459-0.359-4.935-0.359-7.429l-0.103-0.41V174.5H672.857"/>
	<path fill="none" stroke="#010101" stroke-linecap="round" stroke-linejoin="round" stroke-miterlimit="3" d="M672.857,175.012
		l0.974,7.633c0.376,2.527,0.598,5.226,0.667,8.095c0.034,2.869-1.299,4.662-4,5.379l-8.205-0.871
		c-2.735-0.546-4.889,0.102-6.462,1.947c-1.504,1.776-2.325,3.877-2.462,6.301c-0.205,2.527,0.086,4.935,0.872,7.224
		c0.444,1.366,1.214,2.357,2.308,2.971c1.368,0.786,3.094,1.076,5.18,0.871l8.513-0.41c3.248,0,4.94,1.178,5.077,3.535
		c0.103,2.254,0.034,4.645-0.205,7.172c-0.273,2.493-0.667,4.867-1.18,7.121l-0.513,2.766l-20.359-0.307l-1.949,0.154
		c-2.735-0.273-5.026,0.444-6.872,2.152c-1.538,1.366-2.068,2.698-1.59,3.996l1.897,5.021c0.786,2.015,0.068,3.347-2.154,3.996
		l-6.974,0.717l-8.718-1.076c-3.385-0.615-5.145-1.981-5.282-4.099c-0.171-2.186-0.068-4.423,0.308-6.711
		c0.342-2.322-1.009-3.569-4.051-3.74l-26.308-0.922v-1.383c0-2.562,0.103-5.072,0.308-7.531c0.171-2.459,0.479-4.884,0.923-7.275
		c0.547-3.006,2.103-4.525,4.667-4.56l7.538,0.154c2.735,0.171,4.547-0.837,5.436-3.023c0.855-2.049,1.402-4.372,1.641-6.967
		c0.273-2.732-0.564-4.816-2.513-6.25c-1.915-1.434-4.205-1.998-6.872-1.691c-2.633,0.239-4.684-0.666-6.154-2.715
		c-1.402-2.015-2.359-4.116-2.872-6.301l-0.615-3.535c-0.239-2.459-0.359-4.935-0.359-7.429l-0.103-0.41"/>
	<path fill="none" stroke="#010101" stroke-linecap="round" stroke-linejoin="round" stroke-miterlimit="3" d="M592.396,174.5
		h80.462"/>
</g>
<g id="PathID_10" transform="matrix(1, 0, 0, 1, -213.7, 0.5)">
	<path fill="#ED2224" d="M813.7,175.627l-0.051,0.41c0.547,2.254,0.906,4.543,1.077,6.865l0.308,7.48c0,3.04-1.197,4.594-3.59,4.662
		l-4.256-0.512c-2.462-0.649-4.855-0.683-7.18-0.102c-1.812,0.342-3.333,1.417-4.564,3.228c-1.231,1.742-1.932,3.877-2.103,6.404
		c-0.171,2.459-0.137,4.765,0.103,6.916c0.205,2.152,1.521,3.262,3.949,3.33l7.385-0.768c2.359-0.615,4.769-0.564,7.231,0.154
		c2.496,0.649,3.727,2.374,3.692,5.174l-0.051,7.326c-0.034,2.527-0.273,5.021-0.718,7.48l-0.256,1.639l-1.641,0.154
		c-2.53,0.102-5.026,0.051-7.487-0.154c-2.461-0.239-4.974-0.29-7.538-0.154l-8.359-0.256c-3.111-0.307-4.667-1.434-4.667-3.381
		c-0.034-1.947,0.308-4.201,1.026-6.763c0.684-2.596-0.718-4.184-4.205-4.765l-9.18-1.076c-2.564-0.102-4.94,0.393-7.128,1.486
		c-2.496,1.195-3.504,3.193-3.026,5.994c0.41,2.459,0.325,4.389-0.256,5.789c-0.615,1.4-1.744,2.254-3.385,2.562l-15.795,0.564
		l-9.077-0.564l0.513-2.766c0.513-2.254,0.906-4.628,1.179-7.121c0.239-2.527,0.308-4.918,0.205-7.172
		c-0.137-2.357-1.829-3.535-5.077-3.535l-8.513,0.41c-2.086,0.205-3.812-0.085-5.18-0.871c-1.094-0.615-1.863-1.605-2.308-2.971
		c-0.786-2.288-1.077-4.696-0.872-7.224c0.137-2.425,0.957-4.525,2.462-6.301c1.573-1.844,3.727-2.493,6.462-1.947l8.205,0.871
		c2.701-0.717,4.034-2.51,4-5.379c-0.068-2.869-0.291-5.567-0.667-8.095l-0.974-7.633V174.5h80v0.512L813.7,175.627"/>
	<path fill="none" stroke="#010101" stroke-linecap="round" stroke-linejoin="round" stroke-miterlimit="3" d="M813.392,174.5h-80"
		/>
	<path fill="none" stroke="#010101" stroke-linecap="round" stroke-linejoin="round" stroke-miterlimit="3" d="M733.392,175.012
		l0.974,7.633c0.376,2.527,0.598,5.226,0.667,8.095c0.034,2.869-1.299,4.662-4,5.379l-8.205-0.871
		c-2.735-0.546-4.889,0.102-6.462,1.947c-1.504,1.776-2.325,3.877-2.462,6.301c-0.205,2.527,0.085,4.935,0.872,7.224
		c0.444,1.366,1.214,2.357,2.308,2.971c1.367,0.786,3.094,1.076,5.18,0.871l8.513-0.41c3.248,0,4.94,1.178,5.077,3.535
		c0.103,2.254,0.034,4.645-0.205,7.172c-0.273,2.493-0.667,4.867-1.179,7.121l-0.513,2.766l9.077,0.564l15.795-0.564
		c1.641-0.307,2.769-1.161,3.385-2.562c0.581-1.4,0.667-3.33,0.256-5.789c-0.479-2.801,0.53-4.799,3.026-5.994
		c2.188-1.093,4.564-1.588,7.128-1.486l9.18,1.076c3.487,0.581,4.889,2.169,4.205,4.765c-0.718,2.562-1.06,4.816-1.026,6.763
		c0,1.947,1.556,3.074,4.667,3.381l8.359,0.256c2.564-0.137,5.077-0.085,7.538,0.154c2.462,0.205,4.957,0.256,7.487,0.154
		l1.641-0.154l0.256-1.639c0.444-2.459,0.684-4.952,0.718-7.48l0.051-7.326c0.034-2.801-1.197-4.525-3.692-5.174
		c-2.462-0.717-4.872-0.768-7.231-0.154l-7.385,0.768c-2.427-0.068-3.744-1.178-3.949-3.33c-0.239-2.152-0.273-4.457-0.103-6.916
		c0.171-2.527,0.872-4.662,2.103-6.404c1.231-1.81,2.752-2.886,4.564-3.228c2.325-0.581,4.718-0.546,7.18,0.102l4.256,0.512
		c2.393-0.068,3.59-1.622,3.59-4.662l-0.308-7.48c-0.171-2.322-0.53-4.611-1.077-6.865l0.051-0.41l-0.308-0.615"/>
</g>
<g id="PathID_11" transform="matrix(1, 0, 0, 1, -291.1, 0.5)">
	<path fill="#ED2224" d="M890.741,174.5H971.1v59.992l-16.718-1.281c-2.496-0.171-4.991-0.12-7.487,0.154
		c-2.838,0.239-4.034,1.878-3.59,4.918c0.376,2.391,0.991,4.679,1.846,6.865c0.376,0.854,0.273,1.52-0.308,1.998
		c-1.744,1.503-3.949,2.237-6.615,2.203l-7.538-0.307l-6.923-0.922c-2.496-0.41-4.65-1.366-6.462-2.869
		c-1.778-1.469-1.949-3.552-0.513-6.25c1.47-2.835,0.872-4.474-1.795-4.918l-3.385-0.871l-5.487-0.717
		c-2.085-0.068-4.513,0.324-7.282,1.178l-0.41,0.154l-6.41,1.486l0.256-1.639c0.444-2.459,0.684-4.952,0.718-7.48l0.051-7.326
		c0.034-2.801-1.197-4.525-3.692-5.174c-2.462-0.717-4.872-0.768-7.231-0.154l-7.385,0.768c-2.427-0.068-3.744-1.178-3.949-3.33
		c-0.239-2.152-0.273-4.457-0.103-6.916c0.171-2.527,0.872-4.662,2.103-6.404c1.231-1.81,2.752-2.886,4.564-3.228
		c2.325-0.581,4.718-0.546,7.18,0.102l4.256,0.512c2.393-0.068,3.59-1.622,3.59-4.662l-0.308-7.48
		c-0.171-2.322-0.53-4.611-1.077-6.865l0.051-0.41l-0.308-0.615V174.5"/>
	<path fill="none" stroke="#010101" stroke-linecap="round" stroke-linejoin="round" stroke-miterlimit="3" d="M890.741,174.5H971.1
		v59.992l-16.718-1.281c-2.496-0.171-4.991-0.12-7.487,0.154c-2.838,0.239-4.034,1.878-3.59,4.918
		c0.376,2.391,0.991,4.679,1.846,6.865c0.376,0.854,0.273,1.52-0.308,1.998c-1.744,1.503-3.949,2.237-6.615,2.203l-7.538-0.307
		l-6.923-0.922c-2.496-0.41-4.65-1.366-6.462-2.869c-1.778-1.469-1.949-3.552-0.513-6.25c1.47-2.835,0.872-4.474-1.795-4.918
		l-3.385-0.871l-5.487-0.717c-2.085-0.068-4.513,0.324-7.282,1.178l-0.41,0.154l-6.41,1.486l0.256-1.639
		c0.444-2.459,0.684-4.952,0.718-7.48l0.051-7.326c0.034-2.801-1.197-4.525-3.692-5.174c-2.462-0.717-4.872-0.768-7.231-0.154
		l-7.385,0.768c-2.427-0.068-3.744-1.178-3.949-3.33c-0.239-2.152-0.273-4.457-0.103-6.916c0.171-2.527,0.872-4.662,2.103-6.404
		c1.231-1.81,2.752-2.886,4.564-3.228c2.325-0.581,4.718-0.546,7.18,0.102l4.256,0.512c2.393-0.068,3.59-1.622,3.59-4.662
		l-0.308-7.48c-0.171-2.322-0.53-4.611-1.077-6.865l0.051-0.41l-0.308-0.615"/>
</g>
<g id="PathID_12" transform="matrix(1, 0, 0, 1, 0.5, -56.95)">
	<path fill="#ED2224" d="M319.91,307.786c2.564-0.068,5.026-0.41,7.385-1.025c1.949-0.546,2.564-2.015,1.846-4.406
		c-0.752-2.425-0.821-4.389-0.205-5.892c0.65-1.571,1.897-2.579,3.744-3.023c1.812-0.478,3.966-0.7,6.462-0.666l20.103-0.256
		l1.385,14.089c0.103,2.596-0.547,4.611-1.949,6.045c-1.265,1.298-2.855,1.691-4.769,1.178c-2.291-0.683-4.718-0.99-7.282-0.922
		c-2.701-0.034-4.684,0.803-5.949,2.51c-1.299,1.674-1.966,3.859-2,6.558l-0.051,2.971c0.615,2.083,1.487,3.262,2.615,3.535
		l3.949,0.717c1.504,0.205,3.18,0.922,5.026,2.152c1.846,1.23,3.778,1.947,5.795,2.152c0.581,0,1.487,0.512,2.718,1.537
		c1.197,0.956,1.812,2.698,1.846,5.226c0.034,2.459-0.137,4.782-0.513,6.967c-0.274,1.366-0.376,2.869-0.308,4.508l-6.41,0.564
		l-14.205-0.41l-7.385-0.922c-3.111-0.649-3.829-2.271-2.154-4.867l1.538-2.869c1.197-2.562,0.53-4.286-2-5.174
		c-2.256-0.854-4.632-1.247-7.128-1.178l-7.538,0.307c-2.051,0.102-4.222,0.871-6.513,2.305c-2.325,1.366-2.701,3.33-1.128,5.892
		c1.573,2.493,1.47,4.32-0.308,5.482c-1.812,1.127-3.932,1.691-6.359,1.691h-11.231l-9.436-0.82v-58.967l22.308-1.434
		c2.462-0.273,4.752,0.324,6.872,1.793c2.051,1.4,2.615,3.057,1.692,4.969c-0.923,1.913-1.59,3.996-2,6.25
		c-0.41,2.22,0.923,3.364,4,3.432H319.91"/>
	<path fill="none" stroke="#010101" stroke-linecap="round" stroke-linejoin="round" stroke-miterlimit="3" d="M319.91,307.786
		c2.564-0.068,5.026-0.41,7.385-1.025c1.949-0.546,2.564-2.015,1.846-4.406c-0.752-2.425-0.821-4.389-0.205-5.892
		c0.65-1.571,1.897-2.579,3.744-3.023c1.812-0.478,3.966-0.7,6.462-0.666l20.103-0.256l1.385,14.089
		c0.103,2.596-0.547,4.611-1.949,6.045c-1.265,1.298-2.855,1.691-4.769,1.178c-2.291-0.683-4.718-0.99-7.282-0.922
		c-2.701-0.034-4.684,0.803-5.949,2.51c-1.299,1.674-1.966,3.859-2,6.558l-0.051,2.971c0.615,2.083,1.487,3.262,2.615,3.535
		l3.949,0.717c1.504,0.205,3.18,0.922,5.026,2.152c1.846,1.23,3.778,1.947,5.795,2.152c0.581,0,1.487,0.512,2.718,1.537
		c1.197,0.956,1.812,2.698,1.846,5.226c0.034,2.459-0.137,4.782-0.513,6.967c-0.274,1.366-0.376,2.869-0.308,4.508l-6.41,0.564
		l-14.205-0.41l-7.385-0.922c-3.111-0.649-3.829-2.271-2.154-4.867l1.538-2.869c1.197-2.562,0.53-4.286-2-5.174
		c-2.256-0.854-4.632-1.247-7.128-1.178l-7.538,0.307c-2.051,0.102-4.222,0.871-6.513,2.305c-2.325,1.366-2.701,3.33-1.128,5.892
		c1.573,2.493,1.47,4.32-0.308,5.482c-1.812,1.127-3.932,1.691-6.359,1.691h-11.231l-9.436-0.82v-58.967l22.308-1.434
		c2.462-0.273,4.752,0.324,6.872,1.793c2.051,1.4,2.615,3.057,1.692,4.969c-0.923,1.913-1.59,3.996-2,6.25
		c-0.41,2.22,0.923,3.364,4,3.432H319.91z"/>
</g>
<g id="PathID_13" transform="matrix(1, 0, 0, 1, -57.15, -56.7)">
	<path fill="#ED2224" d="M516.118,329.45c-0.923,2.664-2.564,3.569-4.923,2.715c-2.188-0.888-4.581-1.366-7.18-1.434
		c-2.564-0.137-4.735,0.393-6.513,1.588c-1.88,1.708-2.786,3.808-2.718,6.301c0.103,2.425,0.376,4.764,0.821,7.019
		c0.41,2.152,0.615,4.423,0.615,6.814c-1.641-0.034-3.265-0.017-4.872,0.051l-7.333-0.41l-7.282,0.461
		c-2.598,0.342-4.359,1.605-5.282,3.791c-0.718,1.639-0.65,3.347,0.205,5.123c1.265,2.664,0.65,4.491-1.846,5.482
		c-2.256,0.854-4.701,1.23-7.333,1.127l-7.282-0.922l-7.077-1.691c-2.769-0.649-3.983-2.322-3.641-5.021
		c0.205-1.674,0.496-3.313,0.872-4.918c0.581-2.835-0.444-4.628-3.077-5.379c-2.393-0.751-4.872-0.922-7.436-0.512l-7.026,1.383
		l-10.462,0.717c-0.068-1.639,0.034-3.142,0.308-4.508c0.376-2.186,0.547-4.508,0.513-6.967c-0.034-2.527-0.65-4.269-1.846-5.226
		c-1.231-1.025-2.137-1.537-2.718-1.537c-2.017-0.205-3.949-0.922-5.795-2.152s-3.521-1.947-5.026-2.152l-3.949-0.717
		c-1.128-0.273-2-1.452-2.615-3.535l0.051-2.971c0.034-2.698,0.701-4.884,2-6.558c1.265-1.708,3.248-2.544,5.949-2.51
		c2.564-0.068,4.991,0.239,7.282,0.922c1.915,0.512,3.504,0.12,4.769-1.178c1.402-1.434,2.051-3.45,1.949-6.045l-1.385-14.089h2.205
		l15.744-1.486l8.205,0.307c2.974,0.205,3.932,1.759,2.872,4.662c-1.094,2.869-1.265,5.567-0.513,8.095
		c1.88,1.537,4,2.391,6.359,2.562l7.333,0.256l7.385-0.82c0.376-0.102,0.667-0.41,0.872-0.922c0.718-2.357,0.786-4.645,0.205-6.865
		c-0.684-2.698,0.188-4.56,2.615-5.584c2.154-0.99,4.547-1.383,7.179-1.178l7.128,0.205c2.496-0.034,4.991-0.017,7.487,0.051
		l2.923,0.051c0.068,2.015,0.342,3.962,0.821,5.84c0.581,2.323,0.769,4.782,0.564,7.377c-0.273,2.63,0.359,4.918,1.897,6.865
		c1.299,1.605,3.145,2.169,5.538,1.691c2.256-0.478,4.615-0.512,7.077-0.102c1.538,0.205,2.872,0.871,4,1.998
		c1.641,1.674,2.479,3.876,2.513,6.609C517.28,324.753,516.904,327.195,516.118,329.45"/>
	<path fill="none" stroke="#010101" stroke-linecap="round" stroke-linejoin="round" stroke-miterlimit="3" d="M516.118,329.45
		c-0.923,2.664-2.564,3.569-4.923,2.715c-2.188-0.888-4.581-1.366-7.18-1.434c-2.564-0.137-4.735,0.393-6.513,1.588
		c-1.88,1.708-2.786,3.808-2.718,6.301c0.103,2.425,0.376,4.764,0.821,7.019c0.41,2.152,0.615,4.423,0.615,6.814
		c-1.641-0.034-3.265-0.017-4.872,0.051l-7.333-0.41l-7.282,0.461c-2.598,0.342-4.359,1.605-5.282,3.791
		c-0.718,1.639-0.65,3.347,0.205,5.123c1.265,2.664,0.65,4.491-1.846,5.482c-2.256,0.854-4.701,1.23-7.333,1.127l-7.282-0.922
		l-7.077-1.691c-2.769-0.649-3.983-2.322-3.641-5.021c0.205-1.674,0.496-3.313,0.872-4.918c0.581-2.835-0.444-4.628-3.077-5.379
		c-2.393-0.751-4.872-0.922-7.436-0.512l-7.026,1.383l-10.462,0.717c-0.068-1.639,0.034-3.142,0.308-4.508
		c0.376-2.186,0.547-4.508,0.513-6.967c-0.034-2.527-0.65-4.269-1.846-5.226c-1.231-1.025-2.137-1.537-2.718-1.537
		c-2.017-0.205-3.949-0.922-5.795-2.152s-3.521-1.947-5.026-2.152l-3.949-0.717c-1.128-0.273-2-1.452-2.615-3.535l0.051-2.971
		c0.034-2.698,0.701-4.884,2-6.558c1.265-1.708,3.248-2.544,5.949-2.51c2.564-0.068,4.991,0.239,7.282,0.922
		c1.915,0.512,3.504,0.12,4.769-1.178c1.402-1.434,2.051-3.45,1.949-6.045l-1.385-14.089h2.205l15.744-1.486l8.205,0.307
		c2.974,0.205,3.932,1.759,2.872,4.662c-1.094,2.869-1.265,5.567-0.513,8.095c1.88,1.537,4,2.391,6.359,2.562l7.333,0.256
		l7.385-0.82c0.376-0.102,0.667-0.41,0.872-0.922c0.718-2.357,0.786-4.645,0.205-6.865c-0.684-2.698,0.188-4.56,2.615-5.584
		c2.154-0.99,4.547-1.383,7.179-1.178l7.128,0.205c2.496-0.034,4.991-0.017,7.487,0.051l2.923,0.051
		c0.068,2.015,0.342,3.962,0.821,5.84c0.581,2.323,0.769,4.782,0.564,7.377c-0.273,2.63,0.359,4.918,1.897,6.865
		c1.299,1.605,3.145,2.169,5.538,1.691c2.256-0.478,4.615-0.512,7.077-0.102c1.538,0.205,2.872,0.871,4,1.998
		c1.641,1.674,2.479,3.876,2.513,6.609C517.28,324.753,516.904,327.195,516.118,329.45z"/>
</g>
<g id="PathID_14" transform="matrix(1, 0, 0, 1, -153.25, -57.5)">
	<path fill="#ED2224" d="M635.207,308.524l6.974-0.717c2.222-0.649,2.94-1.981,2.154-3.996l-1.897-5.021
		c-0.479-1.298,0.051-2.63,1.59-3.996c1.846-1.708,4.137-2.425,6.872-2.152l1.949-0.154l20.359,0.307
		c-0.205,1.469-0.256,2.989-0.154,4.56c0.103,2.527,0.564,5.157,1.385,7.89c0.786,2.732,0.65,5.089-0.41,7.07
		c-1.06,1.981-2.786,2.801-5.18,2.459l-7.026-1.127c-2.633-0.478-4.991-0.102-7.077,1.127c-1.06,0.546-1.675,1.452-1.846,2.715
		c-0.444,2.425-0.393,4.867,0.154,7.326c0.547,2.357,1.88,4.116,4,5.277c1.983,1.059,4.291,1.588,6.923,1.588l7.128,0.102
		c2.838,0.068,4.308,1.571,4.41,4.508c0.068,2.015-0.051,3.552-0.359,4.611l-1.795,7.326c-0.444,1.537-0.752,3.091-0.923,4.662
		l-20.359-0.461l-7.128-1.383c-2.564-0.717-2.838-2.51-0.82-5.379c1.538-2.254,1.248-4.218-0.872-5.892
		c-1.88-1.537-4.103-2.288-6.667-2.254l-7.641-0.359c-2.53-0.273-4.462,0.051-5.795,0.973c-1.333,0.82-1.812,2.152-1.436,3.996
		c0.342,1.776,0.735,3.398,1.18,4.867c0.444,1.469,0.256,2.869-0.564,4.201c-0.82,1.298-2.581,1.878-5.282,1.742l-24.513-0.359
		c0-2.391-0.205-4.662-0.615-6.814c-0.444-2.254-0.718-4.594-0.82-7.019c-0.068-2.493,0.838-4.594,2.718-6.301
		c1.778-1.195,3.949-1.725,6.513-1.588c2.598,0.068,4.991,0.546,7.18,1.434c2.359,0.854,4-0.051,4.923-2.715
		c0.786-2.254,1.162-4.696,1.128-7.326c-0.034-2.732-0.872-4.935-2.513-6.609c-1.128-1.127-2.462-1.793-4-1.998
		c-2.462-0.41-4.821-0.376-7.077,0.102c-2.393,0.478-4.239-0.085-5.538-1.691c-1.538-1.947-2.171-4.235-1.897-6.865
		c0.205-2.596,0.017-5.055-0.564-7.377c-0.479-1.878-0.752-3.825-0.82-5.84l26.308,0.922c3.043,0.171,4.393,1.417,4.051,3.74
		c-0.376,2.288-0.479,4.525-0.308,6.711c0.137,2.118,1.897,3.484,5.282,4.099L635.207,308.524"/>
	<path fill="none" stroke="#010101" stroke-linecap="round" stroke-linejoin="round" stroke-miterlimit="3" d="M635.207,308.524
		l6.974-0.717c2.222-0.649,2.94-1.981,2.154-3.996l-1.897-5.021c-0.479-1.298,0.051-2.63,1.59-3.996
		c1.846-1.708,4.137-2.425,6.872-2.152l1.949-0.154l20.359,0.307c-0.205,1.469-0.256,2.989-0.154,4.56
		c0.103,2.527,0.564,5.157,1.385,7.89c0.786,2.732,0.65,5.089-0.41,7.07c-1.06,1.981-2.786,2.801-5.18,2.459l-7.026-1.127
		c-2.633-0.478-4.991-0.102-7.077,1.127c-1.06,0.546-1.675,1.452-1.846,2.715c-0.444,2.425-0.393,4.867,0.154,7.326
		c0.547,2.357,1.88,4.116,4,5.277c1.983,1.059,4.291,1.588,6.923,1.588l7.128,0.102c2.838,0.068,4.308,1.571,4.41,4.508
		c0.068,2.015-0.051,3.552-0.359,4.611l-1.795,7.326c-0.444,1.537-0.752,3.091-0.923,4.662l-20.359-0.461l-7.128-1.383
		c-2.564-0.717-2.838-2.51-0.82-5.379c1.538-2.254,1.248-4.218-0.872-5.892c-1.88-1.537-4.103-2.288-6.667-2.254l-7.641-0.359
		c-2.53-0.273-4.462,0.051-5.795,0.973c-1.333,0.82-1.812,2.152-1.436,3.996c0.342,1.776,0.735,3.398,1.18,4.867
		c0.444,1.469,0.256,2.869-0.564,4.201c-0.82,1.298-2.581,1.878-5.282,1.742l-24.513-0.359c0-2.391-0.205-4.662-0.615-6.814
		c-0.444-2.254-0.718-4.594-0.82-7.019c-0.068-2.493,0.838-4.594,2.718-6.301c1.778-1.195,3.949-1.725,6.513-1.588
		c2.598,0.068,4.991,0.546,7.18,1.434c2.359,0.854,4-0.051,4.923-2.715c0.786-2.254,1.162-4.696,1.128-7.326
		c-0.034-2.732-0.872-4.935-2.513-6.609c-1.128-1.127-2.462-1.793-4-1.998c-2.462-0.41-4.821-0.376-7.077,0.102
		c-2.393,0.478-4.239-0.085-5.538-1.691c-1.538-1.947-2.171-4.235-1.897-6.865c0.205-2.596,0.017-5.055-0.564-7.377
		c-0.479-1.878-0.752-3.825-0.82-5.84l26.308,0.922c3.043,0.171,4.393,1.417,4.051,3.74c-0.376,2.288-0.479,4.525-0.308,6.711
		c0.137,2.118,1.897,3.484,5.282,4.099L635.207,308.524z"/>
</g>
<g id="PathID_15" transform="matrix(1, 0, 0, 1, -213.2, -42.85)">
	<path fill="#ED2224" d="M832.147,310.588c-0.923,2.322-2.633,3.501-5.128,3.535l-7.282-0.564c-3.043-0.512-5.128,0.393-6.256,2.715
		c-1.094,2.152-1.641,4.406-1.641,6.763c0,2.459,0.103,4.884,0.308,7.275l0.462,5.789v0.922l-20.769,1.23
		c-2.633,0.273-4.855-0.41-6.667-2.049c-2.188-2.015-2.479-3.945-0.872-5.789c0.615-0.683,1.128-1.503,1.538-2.459
		c1.299-3.006,0.684-4.85-1.846-5.533l-5.231-0.512l-7.333,0.461c-2.53,0.102-4.923,0.564-7.18,1.383
		c-2.53,0.888-3.983,2.459-4.359,4.713c-0.205,1.298-0.017,2.562,0.564,3.791c1.333,2.801,0.513,4.457-2.462,4.969l-16.923,0.666
		l-8.462-0.205c0.171-1.571,0.479-3.125,0.923-4.662l1.795-7.326c0.308-1.059,0.427-2.596,0.359-4.611
		c-0.103-2.937-1.573-4.44-4.41-4.508l-7.128-0.102c-2.633,0-4.94-0.529-6.923-1.588c-2.12-1.161-3.453-2.92-4-5.277
		c-0.547-2.459-0.598-4.901-0.154-7.326c0.171-1.264,0.786-2.169,1.846-2.715c2.085-1.23,4.444-1.605,7.077-1.127l7.026,1.127
		c2.393,0.342,4.12-0.478,5.18-2.459s1.197-4.338,0.41-7.07c-0.821-2.732-1.282-5.362-1.385-7.89
		c-0.103-1.571-0.051-3.091,0.154-4.56l9.077,0.564l15.795-0.564c1.641-0.307,2.769-1.161,3.385-2.562
		c0.581-1.4,0.667-3.33,0.256-5.789c-0.479-2.801,0.53-4.799,3.026-5.994c2.188-1.093,4.564-1.588,7.128-1.486l9.18,1.076
		c3.487,0.581,4.889,2.169,4.205,4.765c-0.718,2.562-1.06,4.816-1.026,6.763c0,1.947,1.556,3.074,4.667,3.381l8.359,0.256
		c2.564-0.137,5.077-0.085,7.539,0.154c2.461,0.205,4.957,0.256,7.487,0.154l1.641-0.154c-0.273,1.844-0.41,3.74-0.41,5.687
		c0,2.493-0.137,4.987-0.41,7.48c-0.273,2.527,0.12,4.867,1.18,7.019c1.128,2.391,3.162,3.142,6.103,2.254l0.359-0.154
		c2.051-0.649,4.273-0.99,6.667-1.025c2.872-0.102,4.598,1.212,5.18,3.945C833.241,305.926,833.036,308.334,832.147,310.588"/>
	<path fill="none" stroke="#010101" stroke-linecap="round" stroke-linejoin="round" stroke-miterlimit="3" d="M832.147,310.588
		c-0.923,2.322-2.633,3.501-5.128,3.535l-7.282-0.564c-3.043-0.512-5.128,0.393-6.256,2.715c-1.094,2.152-1.641,4.406-1.641,6.763
		c0,2.459,0.103,4.884,0.308,7.275l0.462,5.789v0.922l-20.769,1.23c-2.633,0.273-4.855-0.41-6.667-2.049
		c-2.188-2.015-2.479-3.945-0.872-5.789c0.615-0.683,1.128-1.503,1.538-2.459c1.299-3.006,0.684-4.85-1.846-5.533l-5.231-0.512
		l-7.333,0.461c-2.53,0.102-4.923,0.564-7.18,1.383c-2.53,0.888-3.983,2.459-4.359,4.713c-0.205,1.298-0.017,2.562,0.564,3.791
		c1.333,2.801,0.513,4.457-2.462,4.969l-16.923,0.666l-8.462-0.205c0.171-1.571,0.479-3.125,0.923-4.662l1.795-7.326
		c0.308-1.059,0.427-2.596,0.359-4.611c-0.103-2.937-1.573-4.44-4.41-4.508l-7.128-0.102c-2.633,0-4.94-0.529-6.923-1.588
		c-2.12-1.161-3.453-2.92-4-5.277c-0.547-2.459-0.598-4.901-0.154-7.326c0.171-1.264,0.786-2.169,1.846-2.715
		c2.085-1.23,4.444-1.605,7.077-1.127l7.026,1.127c2.393,0.342,4.12-0.478,5.18-2.459s1.197-4.338,0.41-7.07
		c-0.821-2.732-1.282-5.362-1.385-7.89c-0.103-1.571-0.051-3.091,0.154-4.56l9.077,0.564l15.795-0.564
		c1.641-0.307,2.769-1.161,3.385-2.562c0.581-1.4,0.667-3.33,0.256-5.789c-0.479-2.801,0.53-4.799,3.026-5.994
		c2.188-1.093,4.564-1.588,7.128-1.486l9.18,1.076c3.487,0.581,4.889,2.169,4.205,4.765c-0.718,2.562-1.06,4.816-1.026,6.763
		c0,1.947,1.556,3.074,4.667,3.381l8.359,0.256c2.564-0.137,5.077-0.085,7.539,0.154c2.461,0.205,4.957,0.256,7.487,0.154
		l1.641-0.154c-0.273,1.844-0.41,3.74-0.41,5.687c0,2.493-0.137,4.987-0.41,7.48c-0.273,2.527,0.12,4.867,1.18,7.019
		c1.128,2.391,3.162,3.142,6.103,2.254l0.359-0.154c2.051-0.649,4.273-0.99,6.667-1.025c2.872-0.102,4.598,1.212,5.18,3.945
		C833.241,305.926,833.036,308.334,832.147,310.588z"/>
</g>
<g id="PathID_16" transform="matrix(1, 0, 0, 1, -309.8, -56.1)">
	<path fill="#ED2224" d="M956.928,306.059c2.667,0.034,4.872-0.7,6.615-2.203c0.581-0.478,0.684-1.144,0.308-1.998
		c-0.855-2.186-1.47-4.474-1.846-6.865c-0.444-3.04,0.752-4.679,3.59-4.918c2.496-0.273,4.991-0.324,7.487-0.154l16.718,1.281
		v60.453h-0.769c-2.462,0.683-4.957,0.99-7.487,0.922l-15.026,0.359c-2.701,0.102-4.632-0.956-5.795-3.176
		c-0.615-1.161-0.598-2.408,0.051-3.74c1.026-2.288,1.504-4.611,1.436-6.967c-0.068-1.264-0.667-2.015-1.795-2.254
		c-2.154-0.615-4.547-0.854-7.18-0.717l-7.077,0.307c-2.53,0.137-4.82,0.803-6.872,1.998c-2.256,1.23-2.889,3.159-1.897,5.789
		c0.513,1.4,0.598,2.835,0.256,4.303c-0.581,2.425-2.308,3.552-5.179,3.381c-2.427-0.137-4.855-0.188-7.282-0.154l-15.949-0.82
		v-0.922l-0.461-5.789c-0.205-2.391-0.308-4.816-0.308-7.275c0-2.357,0.547-4.611,1.641-6.763c1.128-2.322,3.214-3.228,6.256-2.715
		l7.282,0.564c2.496-0.034,4.205-1.212,5.128-3.535c0.889-2.254,1.094-4.662,0.615-7.224c-0.581-2.732-2.308-4.047-5.18-3.945
		c-2.393,0.034-4.615,0.376-6.667,1.025l-0.359,0.154c-2.94,0.888-4.974,0.137-6.103-2.254c-1.06-2.152-1.453-4.491-1.18-7.019
		c0.273-2.493,0.41-4.987,0.41-7.48c0-1.947,0.137-3.842,0.41-5.687l6.41-1.486l0.41-0.154c2.769-0.854,5.197-1.247,7.282-1.178
		l5.487,0.717l3.385,0.871c2.667,0.444,3.265,2.083,1.795,4.918c-1.436,2.698-1.265,4.782,0.513,6.25
		c1.812,1.503,3.966,2.459,6.462,2.869l6.923,0.922L956.928,306.059"/>
	<path fill="none" stroke="#010101" stroke-linecap="round" stroke-linejoin="round" stroke-miterlimit="3" d="M956.928,306.059
		c2.667,0.034,4.872-0.7,6.615-2.203c0.581-0.478,0.684-1.144,0.308-1.998c-0.855-2.186-1.47-4.474-1.846-6.865
		c-0.444-3.04,0.752-4.679,3.59-4.918c2.496-0.273,4.991-0.324,7.487-0.154l16.718,1.281v60.453h-0.769
		c-2.462,0.683-4.957,0.99-7.487,0.922l-15.026,0.359c-2.701,0.102-4.632-0.956-5.795-3.176c-0.615-1.161-0.598-2.408,0.051-3.74
		c1.026-2.288,1.504-4.611,1.436-6.967c-0.068-1.264-0.667-2.015-1.795-2.254c-2.154-0.615-4.547-0.854-7.18-0.717l-7.077,0.307
		c-2.53,0.137-4.82,0.803-6.872,1.998c-2.256,1.23-2.889,3.159-1.897,5.789c0.513,1.4,0.598,2.835,0.256,4.303
		c-0.581,2.425-2.308,3.552-5.179,3.381c-2.427-0.137-4.855-0.188-7.282-0.154l-15.949-0.82v-0.922l-0.461-5.789
		c-0.205-2.391-0.308-4.816-0.308-7.275c0-2.357,0.547-4.611,1.641-6.763c1.128-2.322,3.214-3.228,6.256-2.715l7.282,0.564
		c2.496-0.034,4.205-1.212,5.128-3.535c0.889-2.254,1.094-4.662,0.615-7.224c-0.581-2.732-2.308-4.047-5.18-3.945
		c-2.393,0.034-4.615,0.376-6.667,1.025l-0.359,0.154c-2.94,0.888-4.974,0.137-6.103-2.254c-1.06-2.152-1.453-4.491-1.18-7.019
		c0.273-2.493,0.41-4.987,0.41-7.48c0-1.947,0.137-3.842,0.41-5.687l6.41-1.486l0.41-0.154c2.769-0.854,5.197-1.247,7.282-1.178
		l5.487,0.717l3.385,0.871c2.667,0.444,3.265,2.083,1.795,4.918c-1.436,2.698-1.265,4.782,0.513,6.25
		c1.812,1.503,3.966,2.459,6.462,2.869l6.923,0.922L956.928,306.059z"/>
</g>
<g id="PathID_17" transform="matrix(1, 0, 0, 1, 0.5, -101.45)">
	<path fill="#ED2224" d="M359.757,396.562l0.154,2.408c-0.171,2.152-0.239,4.491-0.205,7.019l-0.41,7.275
		c-0.273,2.596-1.47,4.406-3.59,5.431c-1.162,0.546-2.41,0.717-3.744,0.512l-7.436-0.768c-2.769-0.068-4.41,1.178-4.923,3.74
		c-0.479,2.425-0.547,4.901-0.205,7.429c0.308,2.288,1.436,3.894,3.385,4.816c1.641,0.751,3.744,0.99,6.308,0.717
		c2.53-0.342,4.615-0.137,6.256,0.615c1.607,0.649,2.633,1.879,3.077,3.689l1.282,6.66c0.41,2.63,0.444,4.884,0.103,6.763
		c-0.308,1.844-0.479,3.433-0.513,4.765l-21.897-0.154c-1.436-0.102-2.53-0.649-3.282-1.639c-1.299-1.708-1.573-3.655-0.821-5.84
		c0.889-2.698,0.12-4.611-2.308-5.738c-2.188-1.093-4.598-1.52-7.231-1.281l-7.538,0.205c-2.701-0.068-5.043,0.598-7.026,1.998
		c-1.265,0.888-1.983,2.049-2.154,3.484c-0.205,2.049,0.325,4.15,1.59,6.301c0.752,1.264,0.53,2.135-0.667,2.613
		c-2.222,0.82-4.53,1.383-6.923,1.691l-7.487,0.307l-7.026-0.922l-6.769-1.178H279.5v-60.914l9.436,0.82h11.231
		c2.427,0,4.547-0.564,6.359-1.691c1.778-1.161,1.88-2.988,0.308-5.482c-1.573-2.562-1.197-4.525,1.128-5.892
		c2.291-1.434,4.462-2.203,6.513-2.305l7.538-0.307c2.496-0.068,4.872,0.324,7.128,1.178c2.53,0.888,3.197,2.613,2,5.174
		l-1.538,2.869c-1.675,2.596-0.957,4.218,2.154,4.867l7.385,0.922l14.205,0.41L359.757,396.562"/>
	<path fill="none" stroke="#010101" stroke-linecap="round" stroke-linejoin="round" stroke-miterlimit="3" d="M359.757,396.562
		l0.154,2.408c-0.171,2.152-0.239,4.491-0.205,7.019l-0.41,7.275c-0.273,2.596-1.47,4.406-3.59,5.431
		c-1.162,0.546-2.41,0.717-3.744,0.512l-7.436-0.768c-2.769-0.068-4.41,1.178-4.923,3.74c-0.479,2.425-0.547,4.901-0.205,7.429
		c0.308,2.288,1.436,3.894,3.385,4.816c1.641,0.751,3.744,0.99,6.308,0.717c2.53-0.342,4.615-0.137,6.256,0.615
		c1.607,0.649,2.633,1.879,3.077,3.689l1.282,6.66c0.41,2.63,0.444,4.884,0.103,6.763c-0.308,1.844-0.479,3.433-0.513,4.765
		l-21.897-0.154c-1.436-0.102-2.53-0.649-3.282-1.639c-1.299-1.708-1.573-3.655-0.821-5.84c0.889-2.698,0.12-4.611-2.308-5.738
		c-2.188-1.093-4.598-1.52-7.231-1.281l-7.538,0.205c-2.701-0.068-5.043,0.598-7.026,1.998c-1.265,0.888-1.983,2.049-2.154,3.484
		c-0.205,2.049,0.325,4.15,1.59,6.301c0.752,1.264,0.53,2.135-0.667,2.613c-2.222,0.82-4.53,1.383-6.923,1.691l-7.487,0.307
		l-7.026-0.922l-6.769-1.178H279.5v-60.914l9.436,0.82h11.231c2.427,0,4.547-0.564,6.359-1.691c1.778-1.161,1.88-2.988,0.308-5.482
		c-1.573-2.562-1.197-4.525,1.128-5.892c2.291-1.434,4.462-2.203,6.513-2.305l7.538-0.307c2.496-0.068,4.872,0.324,7.128,1.178
		c2.53,0.888,3.197,2.613,2,5.174l-1.538,2.869c-1.675,2.596-0.957,4.218,2.154,4.867l7.385,0.922l14.205,0.41L359.757,396.562z"/>
</g>
<g id="PathID_18" transform="matrix(1, 0, 0, 1, -57.7, -113.7)">
	<path fill="#ED2224" d="M517.528,434.747c0.342,2.493,0.359,4.987,0.051,7.48c-0.342,2.493-1.504,4.44-3.487,5.84
		c-1.675,1.127-3.726,1.486-6.154,1.076l-7.231-0.615c-1.88,0.034-3.094,1.144-3.641,3.33c-0.581,2.152-0.752,4.508-0.513,7.07
		c0.239,2.562,0.342,4.799,0.308,6.711l-0.205,3.484l-5.59,0.102l-14.462,1.537c-3.043,0.205-5.59-0.376-7.641-1.742
		c-2.085-1.4-2.376-3.552-0.872-6.455c1.47-2.937,1.009-5.072-1.385-6.404c-2.154-1.264-4.547-1.844-7.18-1.742l-7.282,0.102
		c-2.359-0.034-4.393,0.837-6.103,2.613c-0.444,1.4-0.359,2.937,0.256,4.611c0.615,1.639,0.342,3.04-0.821,4.201
		c-1.504,1.537-3.504,2.647-6,3.33c-2.359,0.649-4.803,1.008-7.333,1.076l-7.538,0.205l-6.923-0.666
		c0.034-1.332,0.205-2.92,0.513-4.765c0.342-1.878,0.308-4.133-0.103-6.763l-1.282-6.66c-0.444-1.81-1.47-3.04-3.077-3.689
		c-1.641-0.751-3.727-0.956-6.256-0.615c-2.564,0.273-4.667,0.034-6.308-0.717c-1.949-0.922-3.077-2.527-3.385-4.816
		c-0.342-2.527-0.273-5.004,0.205-7.429c0.513-2.562,2.154-3.808,4.923-3.74l7.436,0.768c1.333,0.205,2.581,0.034,3.744-0.512
		c2.12-1.025,3.316-2.835,3.59-5.431l0.41-7.275c-0.034-2.527,0.034-4.867,0.205-7.019l-0.154-2.408l10.462-0.717l7.026-1.383
		c2.564-0.41,5.043-0.239,7.436,0.512c2.632,0.751,3.658,2.544,3.077,5.379c-0.376,1.605-0.667,3.245-0.872,4.918
		c-0.342,2.698,0.872,4.372,3.641,5.021l7.077,1.691l7.282,0.922c2.632,0.102,5.077-0.273,7.333-1.127
		c2.496-0.99,3.111-2.818,1.846-5.482c-0.855-1.776-0.923-3.484-0.205-5.123c0.923-2.186,2.684-3.45,5.282-3.791l7.282-0.461
		l7.333,0.41c1.607-0.068,3.231-0.085,4.872-0.051l-0.872,15.011c-0.171,2.835,0.974,4.833,3.436,5.994
		c1.709,0.786,3.538,1.008,5.487,0.666l7.436-0.615C515.511,430.597,517.152,431.98,517.528,434.747"/>
	<path fill="none" stroke="#010101" stroke-linecap="round" stroke-linejoin="round" stroke-miterlimit="3" d="M512.605,430.597
		l-7.436,0.615c-1.949,0.342-3.778,0.12-5.487-0.666c-2.462-1.161-3.607-3.159-3.436-5.994l0.872-15.011
		c-1.641-0.034-3.265-0.017-4.872,0.051l-7.333-0.41l-7.282,0.461c-2.598,0.342-4.359,1.605-5.282,3.791
		c-0.718,1.639-0.65,3.347,0.205,5.123c1.265,2.664,0.65,4.491-1.846,5.482c-2.256,0.854-4.701,1.23-7.333,1.127l-7.282-0.922
		l-7.077-1.691c-2.769-0.649-3.983-2.322-3.641-5.021c0.205-1.674,0.496-3.313,0.872-4.918c0.581-2.835-0.444-4.628-3.077-5.379
		c-2.393-0.751-4.872-0.922-7.436-0.512l-7.026,1.383l-10.462,0.717l0.154,2.408c-0.171,2.152-0.239,4.491-0.205,7.019l-0.41,7.275
		c-0.273,2.596-1.47,4.406-3.59,5.431c-1.162,0.546-2.41,0.717-3.744,0.512l-7.436-0.768c-2.769-0.068-4.41,1.178-4.923,3.74
		c-0.479,2.425-0.547,4.901-0.205,7.429c0.308,2.288,1.436,3.894,3.385,4.816c1.641,0.751,3.744,0.99,6.308,0.717
		c2.53-0.342,4.615-0.137,6.256,0.615c1.607,0.649,2.632,1.878,3.077,3.689l1.282,6.66c0.41,2.63,0.444,4.884,0.103,6.763
		c-0.308,1.844-0.479,3.433-0.513,4.765l6.923,0.666l7.538-0.205c2.53-0.068,4.974-0.427,7.333-1.076
		c2.496-0.683,4.496-1.793,6-3.33c1.162-1.161,1.436-2.562,0.821-4.201c-0.615-1.674-0.701-3.211-0.256-4.611
		c1.709-1.776,3.744-2.647,6.103-2.613l7.282-0.102c2.632-0.102,5.026,0.478,7.18,1.742c2.393,1.332,2.855,3.467,1.385,6.404
		c-1.504,2.903-1.214,5.055,0.872,6.455c2.051,1.366,4.598,1.947,7.641,1.742l14.462-1.537l5.59-0.102l0.205-3.484
		c0.034-1.913-0.068-4.15-0.308-6.711c-0.239-2.562-0.068-4.918,0.513-7.07c0.547-2.186,1.761-3.296,3.641-3.33l7.231,0.615
		c2.427,0.41,4.479,0.051,6.154-1.076c1.983-1.4,3.145-3.347,3.487-5.84c0.308-2.493,0.291-4.987-0.051-7.48
		C517.152,431.98,515.511,430.597,512.605,430.597z"/>
</g>
<g id="PathID_19" transform="matrix(1, 0, 0, 1, -153.8, -101.5)">
	<path fill="#ED2224" d="M672.437,397.569l-0.308,10.144c-0.034,2.596,0.085,5.243,0.359,7.941c0.273,2.664,1.812,4.303,4.615,4.918
		c2.803,0.581,5.641,0.393,8.513-0.564c2.872-1.025,4.838-0.939,5.897,0.256c1.06,1.127,1.624,2.186,1.692,3.176
		c0.205,2.459-0.085,4.85-0.872,7.172c-0.786,2.254-1.983,3.876-3.59,4.867c-2.427-0.205-4.718-0.751-6.872-1.639
		c-1.675-0.717-3.333-0.683-4.974,0.102c-2.393,1.059-4.068,2.767-5.026,5.123c-0.957,2.391-1.35,4.867-1.18,7.429l0.974,10.759
		l-19.385,0.307c-2.632,0.205-5.043-0.376-7.231-1.742c-2.222-1.366-2.444-3.33-0.667-5.892c1.744-2.562,1.538-4.525-0.615-5.892
		c-2.188-1.435-4.564-2.083-7.128-1.947l-7.436,0.615l-6.564,1.383c-1.983,0.512-3.009,1.588-3.077,3.228
		c-0.103,1.639,0.359,3.262,1.385,4.867c0.991,1.605,0.991,2.92,0,3.945c-1.573,1.639-3.573,2.391-6,2.254l-5.385,0.205l-8-0.666
		c-2.803-0.717-5.385-1.076-7.744-1.076h-1.744l0.205-3.484c0.034-1.913-0.068-4.15-0.308-6.711
		c-0.239-2.562-0.068-4.918,0.513-7.07c0.547-2.186,1.761-3.296,3.641-3.33l7.231,0.615c2.427,0.41,4.479,0.051,6.154-1.076
		c1.983-1.4,3.145-3.347,3.487-5.84c0.308-2.493,0.291-4.987-0.051-7.48c-0.376-2.766-2.017-4.15-4.923-4.15l-7.436,0.615
		c-1.949,0.342-3.778,0.12-5.487-0.666c-2.462-1.161-3.607-3.159-3.436-5.994l0.872-15.011l24.513,0.359
		c2.701,0.137,4.462-0.444,5.282-1.742c0.82-1.332,1.009-2.732,0.564-4.201c-0.444-1.469-0.838-3.091-1.179-4.867
		c-0.376-1.844,0.103-3.176,1.436-3.996c1.333-0.922,3.265-1.247,5.795-0.973l7.641,0.359c2.564-0.034,4.786,0.717,6.667,2.254
		c2.12,1.674,2.41,3.637,0.872,5.892c-2.017,2.869-1.744,4.662,0.82,5.379l7.128,1.383L672.437,397.569"/>
	<path fill="none" stroke="#010101" stroke-linecap="round" stroke-linejoin="round" stroke-miterlimit="3" d="M672.437,397.569
		l-0.308,10.144c-0.034,2.596,0.085,5.243,0.359,7.941c0.273,2.664,1.812,4.303,4.615,4.918c2.803,0.581,5.641,0.393,8.513-0.564
		c2.872-1.025,4.838-0.939,5.897,0.256c1.06,1.127,1.624,2.186,1.692,3.176c0.205,2.459-0.085,4.85-0.872,7.172
		c-0.786,2.254-1.983,3.876-3.59,4.867c-2.427-0.205-4.718-0.751-6.872-1.639c-1.675-0.717-3.333-0.683-4.974,0.102
		c-2.393,1.059-4.068,2.767-5.026,5.123c-0.957,2.391-1.35,4.867-1.18,7.429l0.974,10.759l-19.385,0.307
		c-2.632,0.205-5.043-0.376-7.231-1.742c-2.222-1.366-2.444-3.33-0.667-5.892c1.744-2.562,1.538-4.525-0.615-5.892
		c-2.188-1.435-4.564-2.083-7.128-1.947l-7.436,0.615l-6.564,1.383c-1.983,0.512-3.009,1.588-3.077,3.228
		c-0.103,1.639,0.359,3.262,1.385,4.867c0.991,1.605,0.991,2.92,0,3.945c-1.573,1.639-3.573,2.391-6,2.254l-5.385,0.205l-8-0.666
		c-2.803-0.717-5.385-1.076-7.744-1.076h-1.744l0.205-3.484c0.034-1.913-0.068-4.15-0.308-6.711
		c-0.239-2.562-0.068-4.918,0.513-7.07c0.547-2.186,1.761-3.296,3.641-3.33l7.231,0.615c2.427,0.41,4.479,0.051,6.154-1.076
		c1.983-1.4,3.145-3.347,3.487-5.84c0.308-2.493,0.291-4.987-0.051-7.48c-0.376-2.766-2.017-4.15-4.923-4.15l-7.436,0.615
		c-1.949,0.342-3.778,0.12-5.487-0.666c-2.462-1.161-3.607-3.159-3.436-5.994l0.872-15.011l24.513,0.359
		c2.701,0.137,4.462-0.444,5.282-1.742c0.82-1.332,1.009-2.732,0.564-4.201c-0.444-1.469-0.838-3.091-1.179-4.867
		c-0.376-1.844,0.103-3.176,1.436-3.996c1.333-0.922,3.265-1.247,5.795-0.973l7.641,0.359c2.564-0.034,4.786,0.717,6.667,2.254
		c2.12,1.674,2.41,3.637,0.872,5.892c-2.017,2.869-1.744,4.662,0.82,5.379l7.128,1.383L672.437,397.569z"/>
</g>
<g id="PathID_20" transform="matrix(1, 0, 0, 1, -230.8, -101.55)">
	<path fill="#ED2224" d="M849.278,422.175c0.923,2.357,1.368,4.782,1.333,7.275c-0.068,2.459-1.214,4.372-3.436,5.738
		c-1.573,0.99-3.316,1.127-5.231,0.41c-1.197-0.478-2.427-0.768-3.692-0.871l-3.487,0.102c-2.393,0.307-3.88,1.742-4.462,4.303
		c-0.479,2.322-0.701,4.73-0.667,7.224l0.718,10.451l-1.538-0.154l-14.41-0.102l-8.103,0.717c-2.735,0.444-4.034,1.776-3.897,3.996
		c0.137,2.22,0.496,4.269,1.077,6.148c0.547,1.878-0.393,3.108-2.82,3.689l-7.692,0.461l-13.18-0.922
		c-2.085-0.546-2.872-2.135-2.359-4.765c0.479-2.664,0.564-4.867,0.256-6.609c-0.41-2.357-2.086-3.45-5.026-3.279l-7.333,0.922
		h-16.154l-0.974-10.759c-0.171-2.562,0.222-5.038,1.18-7.429c0.957-2.357,2.632-4.064,5.026-5.123
		c1.641-0.786,3.299-0.82,4.974-0.102c2.154,0.888,4.444,1.434,6.872,1.639c1.607-0.99,2.803-2.613,3.59-4.867
		c0.786-2.323,1.077-4.713,0.872-7.172c-0.068-0.99-0.633-2.049-1.692-3.176c-1.06-1.195-3.026-1.281-5.897-0.256
		c-2.872,0.956-5.709,1.144-8.513,0.564c-2.803-0.615-4.342-2.254-4.615-4.918c-0.273-2.698-0.393-5.345-0.359-7.941l0.308-10.144
		l8.462,0.205l16.923-0.666c2.974-0.512,3.795-2.169,2.462-4.969c-0.581-1.23-0.769-2.493-0.564-3.791
		c0.376-2.254,1.829-3.825,4.359-4.713c2.256-0.82,4.65-1.281,7.18-1.383l7.333-0.461l5.231,0.512
		c2.53,0.683,3.145,2.527,1.846,5.533c-0.41,0.956-0.923,1.776-1.538,2.459c-1.607,1.844-1.316,3.774,0.872,5.789
		c1.812,1.639,4.034,2.323,6.667,2.049l20.769-1.23c0.068,1.879-0.103,3.859-0.513,5.943l-1.538,7.172
		c-0.547,2.562-0.239,4.85,0.923,6.865l0.974,0.666l14.359,0.768C846.646,418.452,848.355,419.853,849.278,422.175"/>
	<path fill="none" stroke="#010101" stroke-linecap="round" stroke-linejoin="round" stroke-miterlimit="3" d="M849.278,422.175
		c0.923,2.357,1.368,4.782,1.333,7.275c-0.068,2.459-1.214,4.372-3.436,5.738c-1.573,0.99-3.316,1.127-5.231,0.41
		c-1.197-0.478-2.427-0.768-3.692-0.871l-3.487,0.102c-2.393,0.307-3.88,1.742-4.462,4.303c-0.479,2.322-0.701,4.73-0.667,7.224
		l0.718,10.451l-1.538-0.154l-14.41-0.102l-8.103,0.717c-2.735,0.444-4.034,1.776-3.897,3.996c0.137,2.22,0.496,4.269,1.077,6.148
		c0.547,1.878-0.393,3.108-2.82,3.689l-7.692,0.461l-13.18-0.922c-2.085-0.546-2.872-2.135-2.359-4.765
		c0.479-2.664,0.564-4.867,0.256-6.609c-0.41-2.357-2.086-3.45-5.026-3.279l-7.333,0.922h-16.154l-0.974-10.759
		c-0.171-2.562,0.222-5.038,1.18-7.429c0.957-2.357,2.632-4.064,5.026-5.123c1.641-0.786,3.299-0.82,4.974-0.102
		c2.154,0.888,4.444,1.434,6.872,1.639c1.607-0.99,2.803-2.613,3.59-4.867c0.786-2.323,1.077-4.713,0.872-7.172
		c-0.068-0.99-0.633-2.049-1.692-3.176c-1.06-1.195-3.026-1.281-5.897-0.256c-2.872,0.956-5.709,1.144-8.513,0.564
		c-2.803-0.615-4.342-2.254-4.615-4.918c-0.273-2.698-0.393-5.345-0.359-7.941l0.308-10.144l8.462,0.205l16.923-0.666
		c2.974-0.512,3.795-2.169,2.462-4.969c-0.581-1.23-0.769-2.493-0.564-3.791c0.376-2.254,1.829-3.825,4.359-4.713
		c2.256-0.82,4.65-1.281,7.18-1.383l7.333-0.461l5.231,0.512c2.53,0.683,3.145,2.527,1.846,5.533
		c-0.41,0.956-0.923,1.776-1.538,2.459c-1.607,1.844-1.316,3.774,0.872,5.789c1.812,1.639,4.034,2.323,6.667,2.049l20.769-1.23
		c0.068,1.879-0.103,3.859-0.513,5.943l-1.538,7.172c-0.547,2.562-0.239,4.85,0.923,6.865l0.974,0.666l14.359,0.768
		C846.646,418.452,848.355,419.853,849.278,422.175z"/>
</g>
<g id="PathID_21" transform="matrix(1, 0, 0, 1, -308.3, -101.8)">
	<path fill="#ED2224" d="M987.531,397.585h0.769v57.943l-0.974,0.461c-0.41,0.546-1.043,0.854-1.897,0.922l-7.077,0.512
		c-2.291,0.205-4.803,0.188-7.539-0.051l-7.128-0.922c-1.983-0.376-3.111-1.4-3.385-3.074c-0.308-1.674-0.188-3.757,0.359-6.25
		c0.479-2.527-0.718-3.945-3.59-4.252l-8.205-0.256l-7.282,0.512c-0.855-0.068-2.222,0.222-4.103,0.871
		c-1.88,0.581-2.513,2.391-1.897,5.431c0.581,3.006,0.718,5.004,0.41,5.994c-0.342,0.99-1.111,1.81-2.308,2.459
		c-1.231,0.649-2.889,1.008-4.974,1.076h-7.128l-13.436-1.896l-0.718-10.451c-0.034-2.493,0.188-4.901,0.667-7.224
		c0.581-2.562,2.068-3.996,4.462-4.303l3.487-0.102c1.265,0.102,2.496,0.393,3.692,0.871c1.915,0.717,3.658,0.581,5.231-0.41
		c2.222-1.366,3.367-3.279,3.436-5.738c0.034-2.493-0.41-4.918-1.333-7.275c-0.923-2.323-2.633-3.723-5.128-4.201l-14.359-0.768
		l-0.974-0.666c-1.162-2.015-1.47-4.303-0.923-6.865l1.538-7.172c0.41-2.083,0.581-4.064,0.513-5.943l15.949,0.82
		c2.427-0.034,4.855,0.017,7.282,0.154c2.872,0.171,4.598-0.956,5.179-3.381c0.342-1.469,0.256-2.903-0.256-4.303
		c-0.991-2.63-0.359-4.56,1.897-5.789c2.051-1.195,4.342-1.861,6.872-1.998l7.077-0.307c2.633-0.137,5.026,0.102,7.18,0.717
		c1.128,0.239,1.727,0.99,1.795,2.254c0.068,2.357-0.41,4.679-1.436,6.967c-0.65,1.332-0.667,2.579-0.051,3.74
		c1.162,2.22,3.094,3.279,5.795,3.176l15.026-0.359C982.573,398.576,985.069,398.268,987.531,397.585"/>
	<path fill="none" stroke="#010101" stroke-linecap="round" stroke-linejoin="round" stroke-miterlimit="3" d="M987.531,397.585
		h0.769v57.943l-0.974,0.461c-0.41,0.546-1.043,0.854-1.897,0.922l-7.077,0.512c-2.291,0.205-4.803,0.188-7.539-0.051l-7.128-0.922
		c-1.983-0.376-3.111-1.4-3.385-3.074c-0.308-1.674-0.188-3.757,0.359-6.25c0.479-2.527-0.718-3.945-3.59-4.252l-8.205-0.256
		l-7.282,0.512c-0.855-0.068-2.222,0.222-4.103,0.871c-1.88,0.581-2.513,2.391-1.897,5.431c0.581,3.006,0.718,5.004,0.41,5.994
		c-0.342,0.99-1.111,1.81-2.308,2.459c-1.231,0.649-2.889,1.008-4.974,1.076h-7.128l-13.436-1.896l-0.718-10.451
		c-0.034-2.493,0.188-4.901,0.667-7.224c0.581-2.562,2.068-3.996,4.462-4.303l3.487-0.102c1.265,0.102,2.496,0.393,3.692,0.871
		c1.915,0.717,3.658,0.581,5.231-0.41c2.222-1.366,3.367-3.279,3.436-5.738c0.034-2.493-0.41-4.918-1.333-7.275
		c-0.923-2.323-2.633-3.723-5.128-4.201l-14.359-0.768l-0.974-0.666c-1.162-2.015-1.47-4.303-0.923-6.865l1.538-7.172
		c0.41-2.083,0.581-4.064,0.513-5.943l15.949,0.82c2.427-0.034,4.855,0.017,7.282,0.154c2.872,0.171,4.598-0.956,5.179-3.381
		c0.342-1.469,0.256-2.903-0.256-4.303c-0.991-2.63-0.359-4.56,1.897-5.789c2.051-1.195,4.342-1.861,6.872-1.998l7.077-0.307
		c2.633-0.137,5.026,0.102,7.18,0.717c1.128,0.239,1.727,0.99,1.795,2.254c0.068,2.357-0.41,4.679-1.436,6.967
		c-0.65,1.332-0.667,2.579-0.051,3.74c1.162,2.22,3.094,3.279,5.795,3.176l15.026-0.359
		C982.573,398.576,985.069,398.268,987.531,397.585z"/>
</g>
<g id="PathID_1" transform="matrix(1, 0, 0, 1, 0.5, -161.2)">
	<path fill="#ED2224" d="M359.346,577.38l-19.436,0.564c-2.496,0.068-5.145-0.239-7.949-0.922c-2.803-0.683-3.829-2.322-3.077-4.918
		c0.718-2.63,1.026-5.243,0.923-7.838c-1.573-2.357-3.863-3.398-6.872-3.125l-7.692,0.871c-2.667,0.376-4.684,1.639-6.051,3.791
		c-1.368,2.152-1.641,4.201-0.821,6.148c0.786,1.913,0.701,3.176-0.256,3.791c-1.983,1.23-4.154,2.032-6.513,2.408l-7.282,0.41
		l-14.821-1.691v-60.094h0.256l6.769,1.178l7.026,0.922l7.487-0.307c2.393-0.307,4.701-0.871,6.923-1.691
		c1.197-0.478,1.419-1.349,0.667-2.613c-1.265-2.152-1.795-4.252-1.59-6.301c0.171-1.434,0.889-2.596,2.154-3.484
		c1.983-1.4,4.325-2.066,7.026-1.998l7.538-0.205c2.632-0.239,5.043,0.188,7.231,1.281c2.427,1.127,3.197,3.04,2.308,5.738
		c-0.752,2.186-0.479,4.133,0.821,5.84c0.752,0.99,1.846,1.537,3.282,1.639l21.897,0.154c0.889,1.947,1.453,4.269,1.692,6.967
		l0.308,8.095c-0.034,2.732-1.282,4.321-3.744,4.765l-7.641-0.256c-2.667-0.649-5.026-0.649-7.077,0
		c-2.496,0.786-3.727,2.664-3.692,5.635l0.308,7.275c0.171,2.459,1.197,4.321,3.077,5.584c1.812,1.195,4.171,1.247,7.077,0.154
		c2.872-1.093,5.333-1.178,7.385-0.256c2.017,0.922,3.111,2.92,3.282,5.994c0.137,3.04,0,5.823-0.41,8.351
		c-0.41,2.527-0.581,5.021-0.513,7.48V577.38"/>
	<path fill="none" stroke="#010101" stroke-linecap="round" stroke-linejoin="round" stroke-miterlimit="3" d="M359.346,577.38
		l-19.436,0.564c-2.496,0.068-5.145-0.239-7.949-0.922c-2.803-0.683-3.829-2.322-3.077-4.918c0.718-2.63,1.026-5.243,0.923-7.838
		c-1.573-2.357-3.863-3.398-6.872-3.125l-7.692,0.871c-2.667,0.376-4.684,1.639-6.051,3.791c-1.368,2.152-1.641,4.201-0.821,6.148
		c0.786,1.913,0.701,3.176-0.256,3.791c-1.983,1.23-4.154,2.032-6.513,2.408l-7.282,0.41l-14.821-1.691v-60.094h0.256l6.769,1.178
		l7.026,0.922l7.487-0.307c2.393-0.307,4.701-0.871,6.923-1.691c1.197-0.478,1.419-1.349,0.667-2.613
		c-1.265-2.152-1.795-4.252-1.59-6.301c0.171-1.434,0.889-2.596,2.154-3.484c1.983-1.4,4.325-2.066,7.026-1.998l7.538-0.205
		c2.632-0.239,5.043,0.188,7.231,1.281c2.427,1.127,3.197,3.04,2.308,5.738c-0.752,2.186-0.479,4.133,0.821,5.84
		c0.752,0.99,1.846,1.537,3.282,1.639l21.897,0.154c0.889,1.947,1.453,4.269,1.692,6.967l0.308,8.095
		c-0.034,2.732-1.282,4.321-3.744,4.765l-7.641-0.256c-2.667-0.649-5.026-0.649-7.077,0c-2.496,0.786-3.727,2.664-3.692,5.635
		l0.308,7.275c0.171,2.459,1.197,4.321,3.077,5.584c1.812,1.195,4.171,1.247,7.077,0.154c2.872-1.093,5.333-1.178,7.385-0.256
		c2.017,0.922,3.111,2.92,3.282,5.994c0.137,3.04,0,5.823-0.41,8.351c-0.41,2.527-0.581,5.021-0.513,7.48"/>
</g>
<g id="PathID_25" transform="matrix(1, 0, 0, 1, -57.65, -160.45)">
	<path fill="#ED2224" d="M513.752,537.232c0.82,0.581,1.35,1.383,1.59,2.408c0.479,2.186,0.838,4.987,1.077,8.402
		c0.205,3.381-0.94,5.277-3.436,5.687c-2.496,0.376-5.231,0-8.205-1.127c-2.94-1.127-5.145-0.683-6.615,1.332
		c-1.436,1.981-2.103,4.303-2,6.968l1.128,15.369l-25.641-0.205c-3.214-0.171-4.342-1.298-3.385-3.381l2.359-5.994
		c0.65-1.913-0.615-3.552-3.795-4.918c-3.214-1.366-6.154-1.998-8.82-1.896l-7.487,0.102c-2.769,0-4.94,0.82-6.513,2.459
		c-0.752,0.751-0.718,1.776,0.103,3.074c1.333,2.015,1.846,4.543,1.538,7.582c-1.641,1.332-3.675,2.459-6.103,3.381l-4.974,0.307
		l-17.436-0.41l-0.051-0.666c-0.068-2.459,0.103-4.952,0.513-7.48c0.41-2.527,0.547-5.311,0.41-8.351
		c-0.171-3.074-1.265-5.072-3.282-5.994c-2.051-0.922-4.513-0.837-7.385,0.256c-2.906,1.093-5.265,1.042-7.077-0.154
		c-1.88-1.264-2.906-3.125-3.077-5.584l-0.308-7.275c-0.034-2.971,1.197-4.85,3.692-5.635c2.051-0.649,4.41-0.649,7.077,0
		l7.641,0.256c2.462-0.444,3.709-2.032,3.744-4.765l-0.308-8.095c-0.239-2.698-0.803-5.021-1.692-6.967l6.923,0.666l7.538-0.205
		c2.53-0.068,4.974-0.427,7.333-1.076c2.496-0.683,4.496-1.793,6-3.33c1.162-1.161,1.436-2.562,0.82-4.201
		c-0.615-1.674-0.701-3.211-0.256-4.611c1.709-1.776,3.744-2.647,6.103-2.613l7.282-0.102c2.632-0.102,5.026,0.478,7.179,1.742
		c2.393,1.332,2.855,3.467,1.385,6.404c-1.504,2.903-1.214,5.055,0.872,6.455c2.051,1.366,4.598,1.947,7.641,1.742l14.462-1.537
		l5.59-0.102l-0.205,1.537c0,2.425-0.427,4.747-1.282,6.967c-0.957,2.425-1.06,4.833-0.308,7.224
		c0.752,2.493,2.444,3.859,5.077,4.099l7.487,0.256C509.273,535.132,511.632,535.798,513.752,537.232"/>
	<path fill="none" stroke="#010101" stroke-linecap="round" stroke-linejoin="round" stroke-miterlimit="3" d="M506.675,535.234
		l-7.487-0.256c-2.632-0.239-4.325-1.605-5.077-4.099c-0.752-2.391-0.65-4.799,0.308-7.224c0.855-2.22,1.282-4.543,1.282-6.967
		l0.205-1.537l-5.59,0.102l-14.462,1.537c-3.043,0.205-5.59-0.376-7.641-1.742c-2.085-1.4-2.376-3.552-0.872-6.455
		c1.47-2.937,1.009-5.072-1.385-6.404c-2.154-1.264-4.547-1.844-7.179-1.742l-7.282,0.102c-2.359-0.034-4.393,0.837-6.103,2.613
		c-0.444,1.4-0.359,2.937,0.256,4.611c0.615,1.639,0.342,3.04-0.82,4.201c-1.504,1.537-3.504,2.647-6,3.33
		c-2.359,0.649-4.803,1.008-7.333,1.076l-7.538,0.205l-6.923-0.666c0.889,1.947,1.453,4.269,1.692,6.967l0.308,8.095
		c-0.034,2.732-1.282,4.321-3.744,4.765l-7.641-0.256c-2.667-0.649-5.026-0.649-7.077,0c-2.496,0.786-3.727,2.664-3.692,5.635
		l0.308,7.275c0.171,2.459,1.197,4.32,3.077,5.584c1.812,1.195,4.171,1.247,7.077,0.154c2.872-1.093,5.333-1.178,7.385-0.256
		c2.017,0.922,3.111,2.92,3.282,5.994c0.137,3.04,0,5.823-0.41,8.351c-0.41,2.527-0.581,5.021-0.513,7.48l0.051,0.666l17.436,0.41
		l4.974-0.307c2.427-0.922,4.462-2.049,6.103-3.381c0.308-3.04-0.205-5.567-1.538-7.582c-0.821-1.298-0.855-2.322-0.103-3.074
		c1.573-1.639,3.744-2.459,6.513-2.459l7.487-0.102c2.667-0.102,5.607,0.529,8.82,1.896c3.18,1.366,4.444,3.006,3.795,4.918
		l-2.359,5.994c-0.957,2.083,0.171,3.211,3.385,3.381l25.641,0.205l-1.128-15.369c-0.103-2.664,0.564-4.987,2-6.968
		c1.47-2.015,3.675-2.459,6.615-1.332c2.974,1.127,5.709,1.503,8.205,1.127c2.496-0.41,3.641-2.305,3.436-5.687
		c-0.239-3.415-0.598-6.216-1.077-8.402c-0.239-1.025-0.769-1.827-1.59-2.408C511.632,535.798,509.273,535.132,506.675,535.234z"/>
</g>
<g id="PathID_26" transform="matrix(1, 0, 0, 1, -151.95, -160.4)">
	<path fill="#ED2224" d="M634.663,499.832c2.564-0.137,4.94,0.512,7.128,1.947c2.154,1.366,2.359,3.33,0.615,5.892
		c-1.778,2.562-1.556,4.525,0.667,5.892c2.188,1.366,4.598,1.947,7.231,1.742l19.385-0.307v0.973l-0.769,7.685
		c-0.239,2.562-0.051,4.987,0.564,7.275c0.615,2.493,2.12,3.962,4.513,4.406l7.436,0.461c2.667-0.239,4.94,0.41,6.82,1.947
		c1.812,1.469,2.821,3.501,3.026,6.097c0.239,2.63-0.034,4.884-0.821,6.763c-0.991,2.562-2.906,3.569-5.744,3.023l-7.333-0.82
		c-2.735-0.137-4.496,1.008-5.282,3.432c-0.786,2.425-1.265,4.918-1.436,7.48l-0.667,10.707l-19.538,2.869
		c-2.598,0.102-4.906-0.427-6.923-1.588c-1.06-0.649-1.487-1.52-1.282-2.613l1.179-6.865c0.41-2.118-0.068-3.654-1.436-4.611
		c-1.846-1.264-4.086-1.861-6.718-1.793h-7.487l-7.128,0.564c-2.906,0.581-3.932,2.322-3.077,5.226
		c0.65,2.118,1.043,4.457,1.179,7.019c0,0.854-0.205,1.435-0.615,1.742c-1.983,1.264-4.222,1.981-6.718,2.152
		c-2.427,0.171-4.838,0.171-7.231,0l-12.718-0.82l-1.128-15.369c-0.103-2.664,0.564-4.987,2-6.967
		c1.47-2.015,3.675-2.459,6.615-1.332c2.974,1.127,5.709,1.503,8.205,1.127c2.496-0.41,3.641-2.305,3.436-5.687
		c-0.239-3.415-0.598-6.216-1.077-8.402c-0.239-1.025-0.769-1.827-1.59-2.408c-2.12-1.435-4.479-2.101-7.077-1.998l-7.487-0.256
		c-2.632-0.239-4.325-1.605-5.077-4.099c-0.752-2.391-0.65-4.799,0.308-7.224c0.855-2.22,1.282-4.542,1.282-6.967l0.205-1.537h1.744
		c2.359,0,4.94,0.359,7.744,1.076l8,0.666l5.385-0.205c2.427,0.137,4.427-0.615,6-2.254c0.991-1.025,0.991-2.34,0-3.945
		c-1.026-1.605-1.487-3.228-1.385-4.867c0.068-1.639,1.094-2.715,3.077-3.228l6.564-1.383L634.663,499.832"/>
	<path fill="none" stroke="#010101" stroke-linecap="round" stroke-linejoin="round" stroke-miterlimit="3" d="M634.663,499.832
		c2.564-0.137,4.94,0.512,7.128,1.947c2.154,1.366,2.359,3.33,0.615,5.892c-1.778,2.562-1.556,4.525,0.667,5.892
		c2.188,1.366,4.598,1.947,7.231,1.742l19.385-0.307v0.973l-0.769,7.685c-0.239,2.562-0.051,4.987,0.564,7.275
		c0.615,2.493,2.12,3.962,4.513,4.406l7.436,0.461c2.667-0.239,4.94,0.41,6.82,1.947c1.812,1.469,2.821,3.501,3.026,6.097
		c0.239,2.63-0.034,4.884-0.821,6.763c-0.991,2.562-2.906,3.569-5.744,3.023l-7.333-0.82c-2.735-0.137-4.496,1.008-5.282,3.432
		c-0.786,2.425-1.265,4.918-1.436,7.48l-0.667,10.707l-19.538,2.869c-2.598,0.102-4.906-0.427-6.923-1.588
		c-1.06-0.649-1.487-1.52-1.282-2.613l1.179-6.865c0.41-2.118-0.068-3.654-1.436-4.611c-1.846-1.264-4.086-1.861-6.718-1.793h-7.487
		l-7.128,0.564c-2.906,0.581-3.932,2.322-3.077,5.226c0.65,2.118,1.043,4.457,1.179,7.019c0,0.854-0.205,1.435-0.615,1.742
		c-1.983,1.264-4.222,1.981-6.718,2.152c-2.427,0.171-4.838,0.171-7.231,0l-12.718-0.82l-1.128-15.369
		c-0.103-2.664,0.564-4.987,2-6.967c1.47-2.015,3.675-2.459,6.615-1.332c2.974,1.127,5.709,1.503,8.205,1.127
		c2.496-0.41,3.641-2.305,3.436-5.687c-0.239-3.415-0.598-6.216-1.077-8.402c-0.239-1.025-0.769-1.827-1.59-2.408
		c-2.12-1.435-4.479-2.101-7.077-1.998l-7.487-0.256c-2.632-0.239-4.325-1.605-5.077-4.099c-0.752-2.391-0.65-4.799,0.308-7.224
		c0.855-2.22,1.282-4.542,1.282-6.967l0.205-1.537h1.744c2.359,0,4.94,0.359,7.744,1.076l8,0.666l5.385-0.205
		c2.427,0.137,4.427-0.615,6-2.254c0.991-1.025,0.991-2.34,0-3.945c-1.026-1.605-1.487-3.228-1.385-4.867
		c0.068-1.639,1.094-2.715,3.077-3.228l6.564-1.383L634.663,499.832z"/>
</g>
<g id="PathID_22" transform="matrix(1, 0, 0, 1, -230.95, -174.3)">
	<path fill="#ED2224" d="M748.18,537.801l0.769-7.685v-0.973h16.154l7.333-0.922c2.94-0.171,4.615,0.922,5.026,3.279
		c0.308,1.742,0.222,3.945-0.256,6.609c-0.513,2.63,0.273,4.218,2.359,4.765l13.18,0.922l7.692-0.461
		c2.427-0.581,3.367-1.81,2.82-3.689c-0.581-1.878-0.94-3.928-1.077-6.148c-0.137-2.22,1.162-3.552,3.897-3.996l8.103-0.717
		l14.41,0.102l1.539,0.154l0.205,4.303c0.103,2.562,0.308,5.533,0.615,8.914c0.273,3.347-0.308,5.687-1.744,7.019
		c-1.436,1.298-3.607,1.537-6.513,0.717c-2.906-0.854-5.248-1.059-7.026-0.615c-1.744,0.41-2.701,0.956-2.872,1.639
		c-1.094,1.503-1.641,3.501-1.641,5.994c-0.034,2.425,0.273,4.799,0.923,7.121c0.684,2.562,2.188,4.252,4.513,5.072l12.051-0.307
		c0.752,0.102,1.402,0.359,1.949,0.768c2.086,1.503,2.923,3.637,2.513,6.404c-0.103,0.581-0.154,1.195-0.154,1.844
		c0.103,1.947-0.256,4.116-1.077,6.506l-1.538,5.277l-8.923-1.025l-14.769-0.461c-2.325-0.137-4.103,0.427-5.333,1.691
		c-1.607,1.571-1.692,3.159-0.256,4.765c1.026,1.195,1.453,2.715,1.282,4.56c-0.273,2.357-1.863,3.654-4.769,3.894l-7.487,0.461
		c-2.701,0.137-5.06-0.154-7.077-0.871c-1.846,0.034-3.35-0.256-4.513-0.871c-1.915-1.025-2.53-3.006-1.846-5.943
		c0.547-2.596-0.154-4.747-2.103-6.455c-0.513-0.444-0.923-0.683-1.231-0.717l-7.436-0.615l-16.615,0.461l0.667-10.707
		c0.171-2.562,0.65-5.055,1.436-7.48c0.786-2.425,2.547-3.569,5.282-3.432l7.333,0.82c2.838,0.546,4.752-0.461,5.744-3.023
		c0.786-1.878,1.06-4.133,0.82-6.763c-0.205-2.596-1.214-4.628-3.026-6.097c-1.88-1.537-4.154-2.186-6.821-1.947l-7.436-0.461
		c-2.393-0.444-3.897-1.913-4.513-4.406C748.129,542.788,747.941,540.363,748.18,537.801"/>
	<path fill="none" stroke="#010101" stroke-linecap="round" stroke-linejoin="round" stroke-miterlimit="3" d="M748.18,537.801
		l0.769-7.685v-0.973h16.154l7.333-0.922c2.94-0.171,4.615,0.922,5.026,3.279c0.308,1.742,0.222,3.945-0.256,6.609
		c-0.513,2.63,0.273,4.218,2.359,4.765l13.18,0.922l7.692-0.461c2.427-0.581,3.367-1.81,2.82-3.689
		c-0.581-1.878-0.94-3.928-1.077-6.148c-0.137-2.22,1.162-3.552,3.897-3.996l8.103-0.717l14.41,0.102l1.539,0.154l0.205,4.303
		c0.103,2.562,0.308,5.533,0.615,8.914c0.273,3.347-0.308,5.687-1.744,7.019c-1.436,1.298-3.607,1.537-6.513,0.717
		c-2.906-0.854-5.248-1.059-7.026-0.615c-1.744,0.41-2.701,0.956-2.872,1.639c-1.094,1.503-1.641,3.501-1.641,5.994
		c-0.034,2.425,0.273,4.799,0.923,7.121c0.684,2.562,2.188,4.252,4.513,5.072l12.051-0.307c0.752,0.102,1.402,0.359,1.949,0.768
		c2.086,1.503,2.923,3.637,2.513,6.404c-0.103,0.581-0.154,1.195-0.154,1.844c0.103,1.947-0.256,4.116-1.077,6.506l-1.538,5.277
		l-8.923-1.025l-14.769-0.461c-2.325-0.137-4.103,0.427-5.333,1.691c-1.607,1.571-1.692,3.159-0.256,4.765
		c1.026,1.195,1.453,2.715,1.282,4.56c-0.273,2.357-1.863,3.654-4.769,3.894l-7.487,0.461c-2.701,0.137-5.06-0.154-7.077-0.871
		c-1.846,0.034-3.35-0.256-4.513-0.871c-1.915-1.025-2.53-3.006-1.846-5.943c0.547-2.596-0.154-4.747-2.103-6.455
		c-0.513-0.444-0.923-0.683-1.231-0.717l-7.436-0.615l-16.615,0.461l0.667-10.707c0.171-2.562,0.65-5.055,1.436-7.48
		c0.786-2.425,2.547-3.569,5.282-3.432l7.333,0.82c2.838,0.546,4.752-0.461,5.744-3.023c0.786-1.878,1.06-4.133,0.82-6.763
		c-0.205-2.596-1.214-4.628-3.026-6.097c-1.88-1.537-4.154-2.186-6.821-1.947l-7.436-0.461c-2.393-0.444-3.897-1.913-4.513-4.406
		C748.129,542.788,747.941,540.363,748.18,537.801z"/>
</g>
<g id="PathID_23" transform="matrix(1, 0, 0, 1, -292.45, -161)">
	<path fill="#ED2224" d="M944.809,505.526c-0.547,2.493-0.667,4.577-0.359,6.25c0.274,1.674,1.402,2.698,3.385,3.074l7.128,0.922
		c2.735,0.239,5.248,0.256,7.539,0.051l7.077-0.512c0.855-0.068,1.487-0.376,1.897-0.922l0.974-0.461v61.785l-4.051,0.461
		l-7.487,0.102c-2.53,0-5.026,0.051-7.487,0.154c-2.667,0.102-5.094-0.359-7.282-1.383c-2.256-1.093-2.803-2.613-1.641-4.56
		c1.299-2.152,1.453-4.201,0.461-6.148c-1.06-2.118-2.923-3.398-5.59-3.842l-7.333-0.461l-7.077,0.512
		c-1.983,0.205-3.504,0.803-4.564,1.793c-1.88,1.674-2.171,3.689-0.872,6.045c0.821,1.605,0.803,3.125-0.051,4.56
		c-0.991,1.674-2.701,2.715-5.128,3.125l-2.308,0.564l-7.282,0.666l-7.128-0.359l-5.128-0.82l1.538-5.277
		c0.82-2.391,1.18-4.56,1.077-6.506c0-0.649,0.051-1.264,0.154-1.844c0.41-2.767-0.427-4.901-2.513-6.404
		c-0.547-0.41-1.197-0.666-1.949-0.768l-12.051,0.307c-2.325-0.82-3.829-2.51-4.513-5.072c-0.65-2.323-0.957-4.696-0.923-7.121
		c0-2.493,0.547-4.491,1.641-5.994c0.171-0.683,1.128-1.23,2.872-1.639c1.778-0.444,4.12-0.239,7.026,0.615
		c2.906,0.82,5.077,0.581,6.513-0.717c1.436-1.332,2.017-3.672,1.744-7.019c-0.308-3.381-0.513-6.353-0.615-8.914l-0.205-4.303
		l13.436,1.896h7.128c2.085-0.068,3.744-0.427,4.974-1.076c1.197-0.649,1.966-1.469,2.308-2.459c0.308-0.99,0.171-2.989-0.41-5.994
		c-0.615-3.04,0.017-4.85,1.897-5.431c1.88-0.649,3.248-0.939,4.103-0.871l7.282-0.512l8.205,0.256
		C944.091,501.582,945.288,502.999,944.809,505.526"/>
	<path fill="none" stroke="#010101" stroke-linecap="round" stroke-linejoin="round" stroke-miterlimit="3" d="M944.809,505.526
		c-0.547,2.493-0.667,4.577-0.359,6.25c0.274,1.674,1.402,2.698,3.385,3.074l7.128,0.922c2.735,0.239,5.248,0.256,7.539,0.051
		l7.077-0.512c0.855-0.068,1.487-0.376,1.897-0.922l0.974-0.461v61.785l-4.051,0.461l-7.487,0.102c-2.53,0-5.026,0.051-7.487,0.154
		c-2.667,0.102-5.094-0.359-7.282-1.383c-2.256-1.093-2.803-2.613-1.641-4.56c1.299-2.152,1.453-4.201,0.461-6.148
		c-1.06-2.118-2.923-3.398-5.59-3.842l-7.333-0.461l-7.077,0.512c-1.983,0.205-3.504,0.803-4.564,1.793
		c-1.88,1.674-2.171,3.689-0.872,6.045c0.821,1.605,0.803,3.125-0.051,4.56c-0.991,1.674-2.701,2.715-5.128,3.125l-2.308,0.564
		l-7.282,0.666l-7.128-0.359l-5.128-0.82l1.538-5.277c0.82-2.391,1.18-4.56,1.077-6.506c0-0.649,0.051-1.264,0.154-1.844
		c0.41-2.767-0.427-4.901-2.513-6.404c-0.547-0.41-1.197-0.666-1.949-0.768l-12.051,0.307c-2.325-0.82-3.829-2.51-4.513-5.072
		c-0.65-2.323-0.957-4.696-0.923-7.121c0-2.493,0.547-4.491,1.641-5.994c0.171-0.683,1.128-1.23,2.872-1.639
		c1.778-0.444,4.12-0.239,7.026,0.615c2.906,0.82,5.077,0.581,6.513-0.717c1.436-1.332,2.017-3.672,1.744-7.019
		c-0.308-3.381-0.513-6.353-0.615-8.914l-0.205-4.303l13.436,1.896h7.128c2.085-0.068,3.744-0.427,4.974-1.076
		c1.197-0.649,1.966-1.469,2.308-2.459c0.308-0.99,0.171-2.989-0.41-5.994c-0.615-3.04,0.017-4.85,1.897-5.431
		c1.88-0.649,3.248-0.939,4.103-0.871l7.282-0.512l8.205,0.256C944.091,501.582,945.288,502.999,944.809,505.526z"/>
</g>
<g id="PathID_4" transform="matrix(1, 0, 0, 1, 0.5, -218.65)">
	<path fill="#ED2224" d="M359.346,634.478l-0.154,14.755c-0.239,2.835-1.282,4.833-3.128,5.994c-1.812,1.161-3.949,1.315-6.41,0.461
		c-2.462-0.922-4.427-1.059-5.897-0.41c-1.436,0.615-2.205,1.264-2.308,1.947c-1.231,2.152-1.863,4.696-1.897,7.633
		c-0.068,2.903,0.803,4.765,2.615,5.584c1.778,0.82,3.932,0.973,6.462,0.461c2.53-0.512,4.803-0.205,6.821,0.922l1.795,1.486
		c0.957,1.093,1.59,2.493,1.897,4.201c0.444,2.596,0.53,5.14,0.256,7.633c-0.308,2.459-0.444,4.935-0.41,7.429l0.051,0.359
		l-0.051,0.717H279.5v-59.685l14.821,1.691l7.282-0.41c2.359-0.376,4.53-1.178,6.513-2.408c0.957-0.615,1.043-1.878,0.256-3.791
		c-0.821-1.947-0.547-3.996,0.821-6.148s3.385-3.415,6.051-3.791l7.692-0.871c3.009-0.273,5.299,0.768,6.872,3.125
		c0.103,2.596-0.205,5.208-0.923,7.838c-0.752,2.596,0.273,4.235,3.077,4.918c2.803,0.683,5.453,0.99,7.949,0.922L359.346,634.478"
		/>
	<path fill="none" stroke="#010101" stroke-linecap="round" stroke-linejoin="round" stroke-miterlimit="3" d="M359.346,634.478
		l-0.154,14.755c-0.239,2.835-1.282,4.833-3.128,5.994c-1.812,1.161-3.949,1.315-6.41,0.461c-2.462-0.922-4.427-1.059-5.897-0.41
		c-1.436,0.615-2.205,1.264-2.308,1.947c-1.231,2.152-1.863,4.696-1.897,7.633c-0.068,2.903,0.803,4.765,2.615,5.584
		c1.778,0.82,3.932,0.973,6.462,0.461c2.53-0.512,4.803-0.205,6.821,0.922l1.795,1.486c0.957,1.093,1.59,2.493,1.897,4.201
		c0.444,2.596,0.53,5.14,0.256,7.633c-0.308,2.459-0.444,4.935-0.41,7.429l0.051,0.359l-0.051,0.717H279.5v-59.685l14.821,1.691
		l7.282-0.41c2.359-0.376,4.53-1.178,6.513-2.408c0.957-0.615,1.043-1.878,0.256-3.791c-0.821-1.947-0.547-3.996,0.821-6.148
		s3.385-3.415,6.051-3.791l7.692-0.871c3.009-0.273,5.299,0.768,6.872,3.125c0.103,2.596-0.205,5.208-0.923,7.838
		c-0.752,2.596,0.273,4.235,3.077,4.918c2.803,0.683,5.453,0.99,7.949,0.922L359.346,634.478z"/>
</g>
<g id="PathID_5" transform="matrix(1, 0, 0, 1, -58.05, -218.45)">
	<path fill="#ED2224" d="M417.515,692.733l-0.051-0.359c-0.034-2.493,0.103-4.969,0.41-7.429c0.273-2.493,0.188-5.038-0.256-7.634
		c-0.308-1.708-0.94-3.108-1.897-4.201l-1.795-1.486c-2.017-1.127-4.291-1.435-6.821-0.922s-4.684,0.359-6.462-0.461
		c-1.812-0.82-2.684-2.681-2.615-5.584c0.034-2.937,0.667-5.482,1.897-7.633c0.103-0.683,0.872-1.332,2.308-1.947
		c1.47-0.649,3.436-0.512,5.897,0.41c2.462,0.854,4.598,0.7,6.41-0.461c1.846-1.161,2.889-3.159,3.128-5.994l0.154-14.755h0.051
		l17.436,0.41l4.974-0.307c2.427-0.922,4.462-2.049,6.103-3.381c0.308-3.04-0.205-5.567-1.538-7.582
		c-0.82-1.298-0.855-2.322-0.103-3.074c1.573-1.639,3.744-2.459,6.513-2.459l7.487-0.102c2.667-0.102,5.607,0.529,8.821,1.896
		c3.179,1.366,4.444,3.006,3.795,4.918l-2.359,5.994c-0.957,2.083,0.171,3.211,3.385,3.381l25.641,0.205l0.103,1.025
		c0.274,2.493,0.65,4.918,1.128,7.275l1.436,7.941c0.513,2.971-0.684,4.747-3.59,5.328l-7.897-1.742
		c-2.359-0.547-4.684-0.342-6.974,0.615c-1.47,0.581-2.718,1.571-3.744,2.971c-1.573,2.118-2.274,4.543-2.103,7.275
		c0.171,2.732,0.752,4.662,1.744,5.789c1.026,1.127,2.444,1.674,4.256,1.639l7.333-0.768c2.803-0.444,4.94,0.085,6.41,1.588
		l0.41,0.461c1.436,1.81,2.222,4.047,2.359,6.711c0.103,2.664,0.017,4.969-0.256,6.916l-0.667,4.611v0.922l-0.103,0.717h-80.359
		V692.733"/>
	<path fill="none" stroke="#010101" stroke-linecap="round" stroke-linejoin="round" stroke-miterlimit="3" d="M417.515,693.45
		h80.359l0.103-0.717v-0.922l0.667-4.611c0.274-1.947,0.359-4.252,0.256-6.916c-0.137-2.664-0.923-4.901-2.359-6.711l-0.41-0.461
		c-1.47-1.503-3.607-2.032-6.41-1.588l-7.333,0.768c-1.812,0.034-3.231-0.512-4.256-1.639c-0.991-1.127-1.573-3.057-1.744-5.789
		c-0.171-2.732,0.53-5.157,2.103-7.275c1.026-1.4,2.273-2.391,3.744-2.971c2.291-0.956,4.615-1.161,6.974-0.615l7.897,1.742
		c2.906-0.581,4.103-2.357,3.59-5.328l-1.436-7.941c-0.479-2.357-0.855-4.782-1.128-7.275l-0.103-1.025l-25.641-0.205
		c-3.214-0.171-4.342-1.298-3.385-3.381l2.359-5.994c0.65-1.913-0.615-3.552-3.795-4.918c-3.214-1.366-6.154-1.998-8.821-1.896
		l-7.487,0.102c-2.769,0-4.94,0.82-6.513,2.459c-0.752,0.751-0.718,1.776,0.103,3.074c1.333,2.015,1.846,4.543,1.538,7.582
		c-1.641,1.332-3.675,2.459-6.103,3.381l-4.974,0.307l-17.436-0.41"/>
	<path fill="none" stroke="#010101" stroke-linecap="round" stroke-linejoin="round" stroke-miterlimit="3" d="M417.822,634.278
		l-0.154,14.755c-0.239,2.835-1.282,4.833-3.128,5.994c-1.812,1.161-3.949,1.315-6.41,0.461c-2.462-0.922-4.427-1.059-5.897-0.41
		c-1.436,0.615-2.205,1.264-2.308,1.947c-1.231,2.152-1.863,4.696-1.897,7.633c-0.068,2.903,0.803,4.765,2.615,5.584
		c1.778,0.82,3.932,0.973,6.462,0.461s4.803-0.205,6.821,0.922l1.795,1.486c0.957,1.093,1.59,2.493,1.897,4.201
		c0.444,2.596,0.53,5.14,0.256,7.634c-0.308,2.459-0.444,4.935-0.41,7.429l0.051,0.359"/>
</g>
<g id="PathID_3" transform="matrix(1, 0, 0, 1, -134.45, -218.95)">
	<path fill="#ED2224" d="M574.659,635.7l-0.103-1.025l12.718,0.82c2.393,0.171,4.803,0.171,7.231,0
		c2.496-0.171,4.735-0.888,6.718-2.152c0.41-0.307,0.615-0.888,0.615-1.742c-0.137-2.562-0.53-4.901-1.179-7.019
		c-0.855-2.903,0.171-4.645,3.077-5.226l7.128-0.564h7.487c2.632-0.068,4.872,0.529,6.718,1.793
		c1.367,0.956,1.846,2.493,1.436,4.611l-1.179,6.865c-0.205,1.093,0.222,1.964,1.282,2.613c2.017,1.161,4.325,1.691,6.923,1.588
		l19.538-2.869l-0.103,0.717l-0.462,7.429c-0.273,2.562,0.103,4.969,1.128,7.224c0.923,2.186,2.239,4.013,3.949,5.482
		c0.821,0.717,1.915,1.025,3.282,0.922c2.427-0.171,4.855-0.188,7.282-0.051c1.709,0.102,3.128,0.854,4.256,2.254
		c1.573,2.015,2.325,4.372,2.256,7.07c-0.034,2.63-0.667,4.987-1.897,7.07c-0.41,0.683-1.111,1.008-2.103,0.973l-7.487-0.717
		c-2.564-0.273-4.889,0.154-6.974,1.281l-0.923,0.564c-1.778,1.23-2.65,2.92-2.615,5.072l0.103,7.48
		c0.034,2.118,0.171,4.167,0.41,6.148c-0.137,0.307-0.154,0.854-0.051,1.639h-78.718l0.103-0.717v-0.922l0.667-4.611
		c0.273-1.947,0.359-4.252,0.256-6.916c-0.137-2.664-0.923-4.901-2.359-6.711l-0.41-0.461c-1.47-1.503-3.607-2.032-6.41-1.588
		l-7.333,0.768c-1.812,0.034-3.231-0.512-4.256-1.639c-0.991-1.127-1.573-3.057-1.744-5.789c-0.171-2.732,0.53-5.157,2.103-7.275
		c1.026-1.4,2.273-2.391,3.744-2.971c2.291-0.956,4.615-1.161,6.974-0.615l7.897,1.742c2.906-0.581,4.103-2.357,3.59-5.328
		l-1.436-7.941C575.308,640.618,574.932,638.193,574.659,635.7"/>
	<path fill="none" stroke="#010101" stroke-linecap="round" stroke-linejoin="round" stroke-miterlimit="3" d="M574.659,635.7
		l-0.103-1.025l12.718,0.82c2.393,0.171,4.803,0.171,7.231,0c2.496-0.171,4.735-0.888,6.718-2.152
		c0.41-0.307,0.615-0.888,0.615-1.742c-0.137-2.562-0.53-4.901-1.179-7.019c-0.855-2.903,0.171-4.645,3.077-5.226l7.128-0.564h7.487
		c2.632-0.068,4.872,0.529,6.718,1.793c1.367,0.956,1.846,2.493,1.436,4.611l-1.179,6.865c-0.205,1.093,0.222,1.964,1.282,2.613
		c2.017,1.161,4.325,1.691,6.923,1.588l19.538-2.869l-0.103,0.717l-0.462,7.429c-0.273,2.562,0.103,4.969,1.128,7.224
		c0.923,2.186,2.239,4.013,3.949,5.482c0.821,0.717,1.915,1.025,3.282,0.922c2.427-0.171,4.855-0.188,7.282-0.051
		c1.709,0.102,3.128,0.854,4.256,2.254c1.573,2.015,2.325,4.372,2.256,7.07c-0.034,2.63-0.667,4.987-1.897,7.07
		c-0.41,0.683-1.111,1.008-2.103,0.973l-7.487-0.717c-2.564-0.273-4.889,0.154-6.974,1.281l-0.923,0.564
		c-1.778,1.23-2.65,2.92-2.615,5.072l0.103,7.48c0.034,2.118,0.171,4.167,0.41,6.148c-0.137,0.307-0.154,0.854-0.051,1.639h-78.718
		l0.103-0.717v-0.922l0.667-4.611c0.273-1.947,0.359-4.252,0.256-6.916c-0.137-2.664-0.923-4.901-2.359-6.711l-0.41-0.461
		c-1.47-1.503-3.607-2.032-6.41-1.588l-7.333,0.768c-1.812,0.034-3.231-0.512-4.256-1.639c-0.991-1.127-1.573-3.057-1.744-5.789
		c-0.171-2.732,0.53-5.157,2.103-7.275c1.026-1.4,2.273-2.391,3.744-2.971c2.291-0.956,4.615-1.161,6.974-0.615l7.897,1.742
		c2.906-0.581,4.103-2.357,3.59-5.328l-1.436-7.941C575.308,640.618,574.932,638.193,574.659,635.7z"/>
</g>
<g id="PathID_24" transform="matrix(1, 0, 0, 1, -231.45, -232.75)">
	<path fill="#ED2224" d="M851.945,679.624c-0.308,2.664-1.367,4.782-3.18,6.353c-1.846,1.571-4.154,2.101-6.923,1.588l-7.538-0.871
		c-1.436-0.068-2.547,0.171-3.333,0.717c-0.957,0.615-1.487,1.656-1.59,3.125c-0.205,2.459-0.068,4.799,0.41,7.019l0.974,7.377
		l0.103,2.818h-80.205c-0.103-0.786-0.085-1.332,0.051-1.639c-0.239-1.981-0.376-4.03-0.41-6.148l-0.103-7.48
		c-0.034-2.152,0.838-3.842,2.615-5.072l0.923-0.564c2.085-1.127,4.41-1.554,6.974-1.281l7.487,0.717
		c0.991,0.034,1.692-0.29,2.103-0.973c1.231-2.083,1.863-4.44,1.897-7.07c0.068-2.698-0.684-5.055-2.256-7.07
		c-1.128-1.4-2.547-2.152-4.256-2.254c-2.427-0.137-4.855-0.12-7.282,0.051c-1.367,0.102-2.461-0.205-3.282-0.922
		c-1.709-1.469-3.026-3.296-3.949-5.482c-1.026-2.254-1.402-4.662-1.128-7.224l0.462-7.429l0.103-0.717l16.615-0.461l7.436,0.615
		c0.308,0.034,0.718,0.273,1.231,0.717c1.949,1.708,2.65,3.859,2.103,6.455c-0.684,2.937-0.068,4.918,1.846,5.943
		c1.162,0.615,2.667,0.905,4.513,0.871c2.017,0.717,4.376,1.008,7.077,0.871l7.487-0.461c2.906-0.239,4.496-1.537,4.769-3.894
		c0.171-1.844-0.256-3.364-1.282-4.56c-1.436-1.605-1.35-3.193,0.256-4.765c1.231-1.264,3.009-1.827,5.333-1.691l14.769,0.461
		l8.923,1.025l-0.462,1.742c-0.615,2.254-0.923,4.611-0.923,7.07c-0.068,2.562,0.137,4.987,0.615,7.275
		c0.479,2.596,2.068,4.013,4.769,4.252l7.385-0.205c2.564-0.376,4.786,0.256,6.667,1.896c0.479,0.376,1.043,1.349,1.692,2.92
		C852.047,674.842,852.218,676.96,851.945,679.624"/>
	<path fill="none" stroke="#010101" stroke-linecap="round" stroke-linejoin="round" stroke-miterlimit="3" d="M851.945,679.624
		c-0.308,2.664-1.367,4.782-3.18,6.353c-1.846,1.571-4.154,2.101-6.923,1.588l-7.538-0.871c-1.436-0.068-2.547,0.171-3.333,0.717
		c-0.957,0.615-1.487,1.656-1.59,3.125c-0.205,2.459-0.068,4.799,0.41,7.019l0.974,7.377l0.103,2.818h-80.205
		c-0.103-0.786-0.085-1.332,0.051-1.639c-0.239-1.981-0.376-4.03-0.41-6.148l-0.103-7.48c-0.034-2.152,0.838-3.842,2.615-5.072
		l0.923-0.564c2.085-1.127,4.41-1.554,6.974-1.281l7.487,0.717c0.991,0.034,1.692-0.29,2.103-0.973
		c1.231-2.083,1.863-4.44,1.897-7.07c0.068-2.698-0.684-5.055-2.256-7.07c-1.128-1.4-2.547-2.152-4.256-2.254
		c-2.427-0.137-4.855-0.12-7.282,0.051c-1.367,0.102-2.461-0.205-3.282-0.922c-1.709-1.469-3.026-3.296-3.949-5.482
		c-1.026-2.254-1.402-4.662-1.128-7.224l0.462-7.429l0.103-0.717l16.615-0.461l7.436,0.615c0.308,0.034,0.718,0.273,1.231,0.717
		c1.949,1.708,2.65,3.859,2.103,6.455c-0.684,2.937-0.068,4.918,1.846,5.943c1.162,0.615,2.667,0.905,4.513,0.871
		c2.017,0.717,4.376,1.008,7.077,0.871l7.487-0.461c2.906-0.239,4.496-1.537,4.769-3.894c0.171-1.844-0.256-3.364-1.282-4.56
		c-1.436-1.605-1.35-3.193,0.256-4.765c1.231-1.264,3.009-1.827,5.333-1.691l14.769,0.461l8.923,1.025l-0.462,1.742
		c-0.615,2.254-0.923,4.611-0.923,7.07c-0.068,2.562,0.137,4.987,0.615,7.275c0.479,2.596,2.068,4.013,4.769,4.252l7.385-0.205
		c2.564-0.376,4.786,0.256,6.667,1.896c0.479,0.376,1.043,1.349,1.692,2.92C852.047,674.842,852.218,676.96,851.945,679.624z"/>
</g>
<g id="PathID_6" transform="matrix(1, 0, 0, 1, -308.8, -218.6)">
	<path fill="#ED2224" d="M988.8,633.762V693.6h-80.769l-0.103-2.818l-0.974-7.377c-0.479-2.22-0.615-4.56-0.41-7.019
		c0.103-1.469,0.633-2.51,1.59-3.125c0.786-0.547,1.897-0.786,3.333-0.717l7.538,0.871c2.769,0.512,5.077-0.017,6.923-1.588
		c1.812-1.571,2.872-3.689,3.18-6.353c0.273-2.664,0.103-4.782-0.513-6.353c-0.65-1.571-1.214-2.544-1.692-2.92
		c-1.88-1.639-4.103-2.271-6.667-1.896l-7.385,0.205c-2.701-0.239-4.291-1.656-4.769-4.252c-0.479-2.288-0.684-4.713-0.615-7.275
		c0-2.459,0.308-4.816,0.923-7.07l0.462-1.742l5.128,0.82l7.128,0.359l7.282-0.666l2.308-0.564c2.427-0.41,4.137-1.452,5.128-3.125
		c0.855-1.435,0.872-2.954,0.051-4.56c-1.299-2.357-1.009-4.372,0.872-6.045c1.06-0.99,2.581-1.588,4.564-1.793l7.077-0.512
		l7.333,0.461c2.667,0.444,4.53,1.725,5.59,3.842c0.991,1.947,0.838,3.996-0.461,6.148c-1.162,1.947-0.615,3.467,1.641,4.56
		c2.188,1.025,4.615,1.486,7.282,1.383c2.462-0.102,4.957-0.154,7.487-0.154l7.487-0.102L988.8,633.762"/>
	<path fill="none" stroke="#010101" stroke-linecap="round" stroke-linejoin="round" stroke-miterlimit="3" d="M988.8,633.762V693.6
		h-80.769l-0.103-2.818l-0.974-7.377c-0.479-2.22-0.615-4.56-0.41-7.019c0.103-1.469,0.633-2.51,1.59-3.125
		c0.786-0.547,1.897-0.786,3.333-0.717l7.538,0.871c2.769,0.512,5.077-0.017,6.923-1.588c1.812-1.571,2.872-3.689,3.18-6.353
		c0.273-2.664,0.103-4.782-0.513-6.353c-0.65-1.571-1.214-2.544-1.692-2.92c-1.88-1.639-4.103-2.271-6.667-1.896l-7.385,0.205
		c-2.701-0.239-4.291-1.656-4.769-4.252c-0.479-2.288-0.684-4.713-0.615-7.275c0-2.459,0.308-4.816,0.923-7.07l0.462-1.742
		l5.128,0.82l7.128,0.359l7.282-0.666l2.308-0.564c2.427-0.41,4.137-1.452,5.128-3.125c0.855-1.435,0.872-2.954,0.051-4.56
		c-1.299-2.357-1.009-4.372,0.872-6.045c1.06-0.99,2.581-1.588,4.564-1.793l7.077-0.512l7.333,0.461
		c2.667,0.444,4.53,1.725,5.59,3.842c0.991,1.947,0.838,3.996-0.461,6.148c-1.162,1.947-0.615,3.467,1.641,4.56
		c2.188,1.025,4.615,1.486,7.282,1.383c2.462-0.102,4.957-0.154,7.487-0.154l7.487-0.102L988.8,633.762z"/>
</g>
</svg>
