<?xml version="1.0" encoding="utf-8"?>
<!-- Generator: Adobe Illustrator 17.0.0, SVG Export Plug-In . SVG Version: 6.00 Build 0)  -->
<!DOCTYPE svg PUBLIC "-//W3C//DTD SVG 1.1//EN" "http://www.w3.org/Graphics/SVG/1.1/DTD/svg11.dtd">
<svg version="1.1" id="Layer_1" xmlns="http://www.w3.org/2000/svg" xmlns:xlink="http://www.w3.org/1999/xlink" x="0px" y="0px"
	 width="960px" height="650px" viewBox="0 0 960 650" enable-background="new 0 0 960 650" xml:space="preserve">
<path id="SVGID_1_" fill="#FFFFFF" d="M621.838,415.523c2.43-0.41,4.141-1.451,5.133-3.125c0.856-1.434,0.873-2.954,0.051-4.559
	c-1.3-2.357-1.01-4.372,0.873-6.045c1.061-0.99,2.584-1.588,4.569-1.793l7.084-0.512l7.341,0.461
	c2.669,0.444,4.535,1.725,5.595,3.842c0.992,1.947,0.838,3.996-0.462,6.148c-1.164,1.947-0.616,3.467,1.643,4.559
	c2.19,1.025,4.62,1.486,7.29,1.383c2.464-0.102,4.962-0.154,7.495-0.154l7.495-0.102l4.055-0.461V475h-80.852l-0.103-2.818
	l-0.975-7.377c-0.479-2.22-0.616-4.559-0.411-7.018c0.103-1.469,0.633-2.51,1.591-3.125c0.787-0.546,1.899-0.785,3.337-0.717
	l7.546,0.871c2.772,0.512,5.082-0.017,6.93-1.588c1.814-1.571,2.875-3.689,3.183-6.352c0.274-2.664,0.103-4.781-0.513-6.352
	c-0.65-1.571-1.215-2.544-1.694-2.92c-1.882-1.639-4.107-2.271-6.673-1.895l-7.392,0.205c-2.704-0.239-4.295-1.656-4.774-4.252
	c-0.479-2.288-0.684-4.713-0.616-7.275c0-2.459,0.308-4.816,0.924-7.07l0.462-1.742l5.133,0.82l7.136,0.359l7.29-0.666
	L621.838,415.523"/>
<path id="SVGID_3_" fill="#FFFFFF" d="M544.117,415.318c1.951,1.708,2.652,3.859,2.105,6.455c-0.684,2.937-0.068,4.918,1.848,5.943
	c1.164,0.615,2.669,0.905,4.517,0.871c2.019,0.717,4.381,1.008,7.084,0.871l7.495-0.461c2.909-0.239,4.5-1.537,4.774-3.893
	c0.171-1.844-0.257-3.364-1.283-4.559c-1.437-1.605-1.352-3.193,0.257-4.764c1.232-1.264,3.012-1.827,5.339-1.691l14.784,0.461
	l8.932,1.025l-0.462,1.742c-0.616,2.254-0.924,4.611-0.924,7.07c-0.068,2.561,0.137,4.986,0.616,7.275
	c0.479,2.596,2.071,4.013,4.774,4.252l7.392-0.205c2.567-0.376,4.791,0.256,6.673,1.895c0.479,0.376,1.044,1.349,1.694,2.92
	c0.616,1.571,0.787,3.689,0.513,6.352c-0.308,2.664-1.369,4.781-3.183,6.352c-1.848,1.571-4.158,2.1-6.93,1.588l-7.546-0.871
	c-1.437-0.068-2.55,0.171-3.337,0.717c-0.958,0.615-1.489,1.656-1.591,3.125c-0.205,2.459-0.068,4.799,0.411,7.018l0.975,7.377
	l0.103,2.818H518.86c-0.103-0.786-0.086-1.332,0.051-1.639c-0.24-1.981-0.376-4.03-0.411-6.148l-0.103-7.479
	c-0.034-2.152,0.838-3.842,2.618-5.072l0.924-0.564c2.088-1.127,4.415-1.554,6.982-1.281l7.495,0.717
	c0.992,0.034,1.694-0.29,2.105-0.973c1.232-2.083,1.865-4.44,1.899-7.07c0.068-2.698-0.684-5.055-2.259-7.07
	c-1.129-1.4-2.55-2.152-4.261-2.254c-2.43-0.137-4.86-0.12-7.29,0.051c-1.369,0.102-2.464-0.205-3.285-0.922
	c-1.711-1.469-3.029-3.296-3.953-5.482c-1.027-2.254-1.403-4.662-1.129-7.223l0.462-7.428l0.103-0.717l16.632-0.461l7.444,0.615
	C543.193,414.635,543.604,414.873,544.117,415.318"/>
<path id="SVGID_5_" fill="#FFFFFF" d="M540.421,445.492c-0.034,2.63-0.667,4.986-1.899,7.07c-0.411,0.683-1.112,1.008-2.105,0.973
	l-7.495-0.717c-2.567-0.273-4.894,0.154-6.982,1.281l-0.924,0.564c-1.78,1.229-2.652,2.92-2.618,5.072l0.103,7.479
	c0.034,2.117,0.171,4.167,0.411,6.148c-0.137,0.307-0.154,0.854-0.051,1.639h-78.799l0.103-0.717v-0.922l0.667-4.611
	c0.274-1.947,0.359-4.252,0.257-6.916c-0.137-2.664-0.924-4.901-2.361-6.711l-0.411-0.461c-1.472-1.503-3.611-2.032-6.417-1.588
	l-7.341,0.768c-1.814,0.034-3.234-0.512-4.261-1.639c-0.992-1.127-1.574-3.057-1.745-5.789s0.53-5.157,2.105-7.275
	c1.027-1.4,2.276-2.391,3.747-2.971c2.293-0.956,4.62-1.161,6.982-0.615l7.906,1.742c2.909-0.581,4.107-2.357,3.593-5.328
	l-1.437-7.941c-0.479-2.357-0.856-4.781-1.129-7.275l-0.103-1.025l12.731,0.82c2.396,0.171,4.808,0.171,7.238,0
	c2.498-0.171,4.74-0.888,6.725-2.152c0.411-0.307,0.616-0.888,0.616-1.742c-0.137-2.561-0.53-4.901-1.181-7.018
	c-0.856-2.903,0.171-4.645,3.08-5.225l7.136-0.564h7.495c2.635-0.068,4.877,0.529,6.725,1.793c1.369,0.956,1.848,2.493,1.437,4.611
	l-1.181,6.865c-0.205,1.093,0.222,1.964,1.283,2.613c2.019,1.161,4.329,1.691,6.93,1.588l19.559-2.869l-0.103,0.717l-0.462,7.428
	c-0.274,2.561,0.103,4.969,1.129,7.223c0.924,2.186,2.242,4.013,3.953,5.482c0.821,0.717,1.917,1.025,3.285,0.922
	c2.43-0.171,4.86-0.188,7.29-0.051c1.711,0.102,3.131,0.854,4.261,2.254C539.736,440.437,540.489,442.794,540.421,445.492"/>
<path id="SVGID_7_" fill="#FFFFFF" d="M356.643,436.578c1.848-1.161,2.892-3.159,3.131-5.994l0.359-14.395l22.279-0.256
	c2.43-0.922,4.466-2.049,6.109-3.381c0.308-3.04-0.205-5.567-1.54-7.582c-0.821-1.298-0.856-2.322-0.103-3.074
	c1.574-1.639,3.747-2.459,6.52-2.459l7.495-0.102c2.669-0.102,5.613,0.529,8.83,1.895c3.183,1.366,4.449,3.005,3.799,4.918
	l-2.361,5.994c-0.958,2.083,0.171,3.21,3.388,3.381l25.667,0.205l0.103,1.025c0.274,2.493,0.65,4.918,1.129,7.275l1.437,7.941
	c0.513,2.971-0.684,4.747-3.593,5.328l-7.906-1.742c-2.361-0.546-4.689-0.342-6.982,0.615c-1.472,0.581-2.721,1.571-3.747,2.971
	c-1.574,2.117-2.276,4.542-2.105,7.275c0.171,2.732,0.753,4.662,1.745,5.789c1.027,1.127,2.447,1.673,4.261,1.639l7.341-0.768
	c2.806-0.444,4.945,0.085,6.417,1.588l0.411,0.461c1.437,1.81,2.225,4.047,2.361,6.711c0.103,2.664,0.017,4.969-0.257,6.916
	l-0.667,4.611v0.922L440.062,475h-80.493l0.051-0.717l-0.051-0.359c-0.034-2.493,0.103-4.969,0.411-7.428
	c0.274-2.493,0.188-5.038-0.257-7.633c-0.308-1.708-0.941-3.108-1.899-4.201l-1.797-1.486c-2.019-1.127-4.295-1.434-6.828-0.922
	c-2.533,0.512-4.689,0.359-6.468-0.461c-1.814-0.82-2.687-2.681-2.618-5.584c0.034-2.937,0.667-5.482,1.899-7.633
	c0.103-0.683,0.873-1.332,2.31-1.947c1.472-0.649,3.439-0.512,5.903,0.41C352.69,437.893,354.829,437.739,356.643,436.578"/>
<path id="SVGID_9_" fill="#FFFFFF" d="M308.645,414.19c0.958-0.615,1.044-1.878,0.257-3.791c-0.821-1.947-0.548-3.996,0.821-6.148
	c1.369-2.152,3.388-3.415,6.057-3.791l7.7-0.871c3.012-0.273,5.305,0.768,6.879,3.125c0.103,2.596-0.205,5.208-0.924,7.838
	c-0.753,2.596,0.274,4.235,3.08,4.918c2.806,0.683,5.459,0.99,7.957,0.922l19.199-0.41l-0.051,0.205h0.513l-0.359,14.395
	c-0.24,2.835-1.283,4.833-3.131,5.994c-1.814,1.161-3.953,1.315-6.417,0.461c-2.464-0.922-4.432-1.059-5.903-0.41
	c-1.437,0.615-2.207,1.264-2.31,1.947c-1.232,2.152-1.865,4.696-1.899,7.633c-0.068,2.903,0.804,4.764,2.618,5.584
	c1.78,0.82,3.936,0.973,6.468,0.461c2.532-0.512,4.808-0.205,6.828,0.922l1.797,1.486c0.958,1.093,1.591,2.493,1.899,4.201
	c0.445,2.596,0.53,5.14,0.257,7.633c-0.308,2.459-0.445,4.935-0.411,7.428l0.051,0.359L359.569,475H280v-59.682l14.836,1.691
	l7.29-0.41C304.487,416.222,306.66,415.419,308.645,414.19"/>
<path id="SVGID_11_" fill="#FFFFFF" d="M670.041,355.276l7.084-0.512c0.856-0.068,1.489-0.376,1.899-0.922l0.975-0.461v61.783
	l-4.055,0.461l-7.495,0.102c-2.533,0-5.031,0.051-7.495,0.154c-2.669,0.102-5.099-0.359-7.29-1.383
	c-2.259-1.093-2.806-2.613-1.643-4.559c1.3-2.152,1.454-4.201,0.462-6.148c-1.061-2.118-2.926-3.398-5.595-3.842l-7.341-0.461
	L632.464,400c-1.985,0.205-3.508,0.803-4.569,1.793c-1.882,1.674-2.173,3.689-0.873,6.045c0.821,1.605,0.804,3.125-0.051,4.559
	c-0.992,1.673-2.704,2.715-5.133,3.125l-2.31,0.564l-7.29,0.666l-7.136-0.359l-5.133-0.82l1.54-5.277
	c0.821-2.391,1.181-4.559,1.078-6.506c0-0.649,0.051-1.264,0.154-1.844c0.411-2.766-0.428-4.901-2.515-6.404
	c-0.548-0.41-1.198-0.666-1.951-0.768l-12.064,0.307c-2.327-0.82-3.833-2.51-4.517-5.072c-0.65-2.322-0.958-4.696-0.924-7.121
	c0-2.493,0.548-4.491,1.643-5.994c0.171-0.683,1.129-1.23,2.875-1.639c1.78-0.444,4.124-0.239,7.033,0.615
	c2.909,0.82,5.082,0.581,6.52-0.717c1.437-1.332,2.019-3.671,1.745-7.018c-0.308-3.381-0.513-6.352-0.616-8.914l-0.205-4.303
	l13.45,1.895h7.135c2.088-0.068,3.747-0.427,4.979-1.076c1.198-0.649,1.968-1.469,2.31-2.459c0.308-0.99,0.171-2.988-0.411-5.994
	c-0.616-3.04,0.017-4.85,1.899-5.43c1.882-0.649,3.251-0.939,4.107-0.871l7.289-0.512l8.214,0.256
	c2.875,0.307,4.073,1.725,3.593,4.252c-0.548,2.493-0.667,4.577-0.359,6.25c0.274,1.673,1.403,2.698,3.388,3.074l7.136,0.922
	C665.233,355.464,667.748,355.482,670.041,355.276"/>
<path id="SVGID_13_" fill="#FFFFFF" d="M599.764,354.917l0.205,4.303c0.103,2.561,0.308,5.533,0.616,8.914
	c0.274,3.347-0.308,5.686-1.745,7.018c-1.437,1.298-3.611,1.537-6.52,0.717c-2.909-0.854-5.253-1.059-7.033-0.615
	c-1.745,0.41-2.704,0.956-2.875,1.639c-1.095,1.503-1.643,3.501-1.643,5.994c-0.034,2.425,0.274,4.798,0.924,7.121
	c0.684,2.561,2.19,4.252,4.517,5.072l12.064-0.307c0.753,0.102,1.403,0.359,1.951,0.768c2.088,1.503,2.926,3.637,2.515,6.404
	c-0.103,0.581-0.154,1.195-0.154,1.844c0.103,1.947-0.257,4.115-1.078,6.506l-1.54,5.277l-8.932-1.025l-14.784-0.461
	c-2.327-0.137-4.107,0.427-5.339,1.691c-1.608,1.571-1.694,3.159-0.257,4.764c1.027,1.195,1.454,2.715,1.283,4.559
	c-0.274,2.357-1.865,3.654-4.774,3.893l-7.495,0.461c-2.704,0.137-5.065-0.154-7.084-0.871c-1.848,0.034-3.354-0.256-4.517-0.871
	c-1.917-1.025-2.533-3.005-1.848-5.943c0.548-2.596-0.154-4.747-2.105-6.455c-0.513-0.444-0.924-0.683-1.232-0.717l-7.444-0.615
	l-16.632,0.461l0.667-10.707c0.171-2.561,0.65-5.055,1.437-7.479c0.787-2.425,2.55-3.569,5.288-3.432l7.341,0.82
	c2.841,0.546,4.757-0.461,5.749-3.023c0.787-1.878,1.061-4.133,0.821-6.762c-0.205-2.596-1.215-4.628-3.029-6.096
	c-1.882-1.537-4.158-2.186-6.827-1.947l-7.444-0.461c-2.396-0.444-3.901-1.913-4.517-4.406c-0.616-2.288-0.804-4.713-0.565-7.275
	l0.77-7.684v-0.973h16.17l7.341-0.922c2.943-0.171,4.62,0.922,5.031,3.279c0.308,1.742,0.222,3.945-0.257,6.609
	c-0.513,2.63,0.274,4.218,2.361,4.764l13.193,0.922l7.7-0.461c2.43-0.581,3.371-1.81,2.823-3.689
	c-0.582-1.878-0.941-3.928-1.078-6.148c-0.137-2.22,1.164-3.552,3.901-3.996l8.111-0.717l14.425,0.102L599.764,354.917"/>
<path id="SVGID_15_" fill="#FFFFFF" d="M539.292,390.625c-0.992,2.561-2.909,3.569-5.749,3.023l-7.341-0.82
	c-2.738-0.137-4.5,1.008-5.288,3.432c-0.787,2.425-1.266,4.918-1.437,7.479l-0.667,10.707l-19.559,2.869
	c-2.601,0.102-4.911-0.427-6.93-1.588c-1.061-0.649-1.489-1.52-1.283-2.613l1.181-6.865c0.411-2.118-0.068-3.654-1.437-4.611
	c-1.848-1.264-4.09-1.861-6.725-1.793h-7.495l-7.136,0.564c-2.909,0.581-3.936,2.322-3.08,5.225c0.65,2.117,1.044,4.457,1.181,7.018
	c0,0.854-0.205,1.434-0.616,1.742c-1.985,1.264-4.227,1.981-6.725,2.152c-2.43,0.171-4.843,0.171-7.238,0l-12.731-0.82
	l-1.129-15.369c-0.103-2.664,0.565-4.986,2.002-6.967c1.472-2.015,3.679-2.459,6.622-1.332c2.977,1.127,5.715,1.503,8.214,1.127
	c2.498-0.41,3.645-2.305,3.439-5.686c-0.24-3.415-0.599-6.216-1.078-8.402c-0.24-1.025-0.77-1.827-1.591-2.408
	c-2.122-1.434-4.483-2.1-7.084-1.998l-7.495-0.256c-2.635-0.239-4.329-1.605-5.082-4.098c-0.753-2.391-0.65-4.798,0.308-7.223
	c0.856-2.22,1.283-4.542,1.283-6.967l0.205-1.537h1.745c2.361,0,4.945,0.359,7.752,1.076l8.008,0.666l5.39-0.205
	c2.43,0.137,4.432-0.615,6.006-2.254c0.992-1.025,0.992-2.339,0-3.945c-1.027-1.605-1.489-3.227-1.386-4.867
	c0.068-1.639,1.095-2.715,3.08-3.227l6.571-1.383l7.444-0.615c2.567-0.137,4.945,0.512,7.136,1.947
	c2.156,1.366,2.361,3.33,0.616,5.891c-1.78,2.561-1.557,4.525,0.667,5.891c2.19,1.366,4.603,1.947,7.238,1.742l19.405-0.307v0.973
	l-0.77,7.684c-0.24,2.561-0.051,4.986,0.565,7.275c0.616,2.493,2.122,3.962,4.517,4.406l7.444,0.461
	c2.669-0.239,4.945,0.41,6.827,1.947c1.814,1.469,2.823,3.501,3.029,6.096C540.353,386.492,540.079,388.747,539.292,390.625"/>
<path id="SVGID_17_" fill="#FFFFFF" d="M359.877,355.378l6.93,0.666l7.546-0.205l7.341-1.076c2.498-0.683,4.5-1.793,6.006-3.33
	c1.164-1.161,1.437-2.561,0.821-4.201c-0.616-1.673-0.702-3.21-0.257-4.611c1.711-1.776,3.747-2.647,6.109-2.613l7.29-0.102
	c2.635-0.102,5.031,0.478,7.187,1.742c2.396,1.332,2.858,3.467,1.386,6.404c-1.506,2.903-1.215,5.055,0.873,6.455
	c2.053,1.366,4.603,1.947,7.649,1.742l14.476-1.537l5.595-0.102l-0.205,1.537c0,2.425-0.428,4.747-1.283,6.967
	c-0.958,2.425-1.061,4.833-0.308,7.223c0.753,2.493,2.447,3.859,5.082,4.098l7.495,0.256c2.601-0.102,4.962,0.564,7.084,1.998
	c0.821,0.581,1.352,1.383,1.591,2.408c0.479,2.186,0.838,4.986,1.078,8.402c0.205,3.381-0.941,5.277-3.439,5.686
	c-2.498,0.376-5.236,0-8.214-1.127c-2.943-1.127-5.151-0.683-6.622,1.332c-1.437,1.981-2.105,4.303-2.002,6.967l1.129,15.369
	l-25.667-0.205c-3.217-0.171-4.346-1.298-3.388-3.381l2.361-5.994c0.65-1.913-0.616-3.552-3.799-4.918
	c-3.217-1.366-6.16-1.998-8.83-1.895l-7.495,0.102c-2.772,0-4.945,0.82-6.52,2.459c-0.753,0.751-0.719,1.776,0.103,3.074
	c1.335,2.015,1.848,4.542,1.54,7.582c-1.643,1.332-3.679,2.459-6.109,3.381l-22.279,0.256v-0.205h-0.462l0.257-0.82
	c-0.068-2.459,0.103-4.952,0.513-7.48c0.411-2.527,0.548-5.311,0.411-8.35c-0.171-3.074-1.266-5.072-3.285-5.994l-7.392,0.256
	c-2.909,1.093-5.27,1.042-7.084-0.154c-1.882-1.264-2.909-3.125-3.08-5.584l-0.308-7.275c-0.034-2.971,1.198-4.85,3.696-5.635
	c2.053-0.649,4.415-0.649,7.084,0l7.649,0.256c2.464-0.444,3.713-2.032,3.747-4.764l-0.308-8.094
	C361.331,359.648,360.767,357.326,359.877,355.378"/>
<path id="SVGID_19_" fill="#FFFFFF" d="M337.957,355.224l21.92,0.154c0.89,1.947,1.454,4.269,1.694,6.967l0.308,8.094
	c-0.034,2.732-1.283,4.32-3.747,4.764l-7.649-0.256c-2.669-0.649-5.031-0.649-7.084,0c-2.498,0.786-3.73,2.664-3.696,5.635
	l0.308,7.275c0.171,2.459,1.198,4.32,3.08,5.584c1.814,1.195,4.175,1.247,7.084,0.154l7.392-0.256
	c2.019,0.922,3.114,2.92,3.285,5.994c0.137,3.04,0,5.823-0.411,8.35c-0.411,2.527-0.582,5.021-0.513,7.48l-0.257,0.82l-19.199,0.41
	c-2.498,0.068-5.151-0.239-7.957-0.922s-3.833-2.322-3.08-4.918c0.719-2.63,1.027-5.242,0.924-7.838
	c-1.574-2.357-3.867-3.398-6.879-3.125l-7.7,0.871c-2.669,0.376-4.689,1.639-6.057,3.791c-1.369,2.152-1.643,4.201-0.821,6.148
	c0.787,1.913,0.702,3.176-0.257,3.791c-1.985,1.229-4.158,2.032-6.52,2.408l-7.29,0.41L280,415.318v-60.092h0.257
	c2.327,0.239,4.586,0.632,6.776,1.178l7.033,0.922l7.495-0.307c2.396-0.307,4.706-0.871,6.93-1.691
	c1.198-0.478,1.42-1.349,0.667-2.613c-1.266-2.152-1.797-4.252-1.591-6.301c0.171-1.434,0.89-2.596,2.156-3.484
	c1.985-1.4,4.329-2.066,7.033-1.998l7.546-0.205c2.635-0.239,5.048,0.188,7.238,1.281c2.43,1.127,3.2,3.04,2.31,5.738
	c-0.753,2.186-0.479,4.133,0.821,5.84C335.424,354.576,336.52,355.122,337.957,355.224"/>
<path id="SVGID_21_" fill="#FFFFFF" d="M598.224,314.651c-1.164-2.015-1.472-4.303-0.924-6.865l1.54-7.172
	c0.411-2.083,0.582-4.064,0.513-5.943l15.965,0.82c2.43-0.034,4.86,0.017,7.29,0.154c2.875,0.171,4.603-0.956,5.185-3.381
	c0.342-1.469,0.257-2.903-0.257-4.303c-0.992-2.63-0.359-4.559,1.899-5.789c2.053-1.195,4.346-1.861,6.879-1.998l7.084-0.307
	c2.635-0.137,5.031,0.102,7.187,0.717c1.129,0.239,1.728,0.99,1.797,2.254c0.068,2.357-0.411,4.679-1.437,6.967
	c-0.65,1.332-0.667,2.579-0.051,3.74c1.164,2.22,3.097,3.279,5.801,3.176l15.041-0.359c2.532,0.068,5.031-0.239,7.495-0.922H680
	v57.941l-0.975,0.461c-0.411,0.546-1.044,0.854-1.899,0.922l-7.084,0.512c-2.293,0.205-4.808,0.188-7.546-0.051l-7.136-0.922
	c-1.985-0.376-3.114-1.4-3.388-3.074c-0.308-1.673-0.188-3.757,0.359-6.25c0.479-2.527-0.719-3.945-3.593-4.252l-8.214-0.256
	l-7.289,0.512c-0.856-0.068-2.224,0.222-4.107,0.871c-1.882,0.581-2.515,2.391-1.899,5.43c0.582,3.005,0.719,5.003,0.411,5.994
	c-0.342,0.99-1.112,1.81-2.31,2.459c-1.232,0.649-2.892,1.008-4.979,1.076h-7.135l-13.45-1.895l-0.719-10.451
	c-0.034-2.493,0.188-4.901,0.667-7.223c0.582-2.561,2.07-3.996,4.466-4.303l3.491-0.102c1.266,0.102,2.498,0.393,3.696,0.871
	c1.916,0.717,3.662,0.581,5.236-0.41c2.224-1.366,3.371-3.279,3.439-5.738c0.034-2.493-0.411-4.918-1.335-7.275
	c-0.924-2.322-2.635-3.723-5.133-4.201l-14.374-0.768L598.224,314.651"/>
<path id="SVGID_23_" fill="#FFFFFF" d="M546.581,286.117c0.376-2.254,1.831-3.825,4.363-4.713c2.259-0.82,4.654-1.281,7.187-1.383
	l7.341-0.461l5.236,0.512c2.533,0.683,3.149,2.527,1.848,5.533c-0.411,0.956-0.924,1.776-1.54,2.459
	c-1.608,1.844-1.318,3.774,0.873,5.789c1.814,1.639,4.038,2.322,6.674,2.049l20.791-1.23c0.068,1.878-0.103,3.859-0.513,5.943
	l-1.54,7.172c-0.548,2.561-0.24,4.85,0.924,6.865l0.975,0.666l14.374,0.768c2.498,0.478,4.209,1.878,5.133,4.201
	c0.924,2.357,1.369,4.781,1.335,7.275c-0.068,2.459-1.215,4.372-3.439,5.738c-1.574,0.99-3.32,1.127-5.236,0.41
	c-1.198-0.478-2.43-0.768-3.696-0.871l-3.491,0.102c-2.396,0.307-3.884,1.742-4.466,4.303c-0.479,2.322-0.702,4.73-0.667,7.223
	l0.719,10.451l-1.54-0.154l-14.425-0.102l-8.111,0.717c-2.738,0.444-4.038,1.776-3.901,3.996c0.137,2.22,0.496,4.269,1.078,6.148
	c0.548,1.878-0.394,3.108-2.823,3.689l-7.7,0.461l-13.193-0.922c-2.088-0.546-2.875-2.135-2.361-4.764
	c0.479-2.664,0.565-4.867,0.257-6.609c-0.411-2.357-2.088-3.449-5.031-3.279l-7.341,0.922h-16.17l-0.975-10.758
	c-0.171-2.561,0.222-5.038,1.181-7.428c0.958-2.357,2.635-4.064,5.031-5.123c1.643-0.786,3.303-0.82,4.979-0.102
	c2.156,0.888,4.449,1.434,6.879,1.639c1.608-0.99,2.806-2.613,3.593-4.867c0.787-2.322,1.078-4.713,0.873-7.172
	c-0.068-0.99-0.633-2.049-1.694-3.176c-1.061-1.195-3.029-1.281-5.904-0.256c-2.875,0.956-5.715,1.144-8.522,0.564
	c-2.806-0.615-4.346-2.254-4.62-4.918c-0.274-2.698-0.394-5.345-0.359-7.941l0.308-10.143l8.47,0.205l16.94-0.666
	c2.977-0.512,3.799-2.169,2.464-4.969C546.564,288.677,546.376,287.414,546.581,286.117"/>
<path id="SVGID_25_" fill="#FFFFFF" d="M540.062,321.208c0.205,2.459-0.086,4.85-0.873,7.172c-0.787,2.254-1.985,3.876-3.593,4.867
	c-2.43-0.205-4.723-0.751-6.879-1.639c-1.677-0.717-3.337-0.683-4.979,0.102c-2.396,1.059-4.073,2.766-5.031,5.123
	c-0.958,2.391-1.352,4.867-1.181,7.428l0.975,10.758l-19.405,0.307c-2.635,0.205-5.048-0.376-7.238-1.742
	c-2.225-1.366-2.447-3.33-0.667-5.891c1.745-2.561,1.54-4.525-0.616-5.891c-2.19-1.434-4.569-2.083-7.136-1.947l-7.444,0.615
	l-6.571,1.383c-1.985,0.512-3.012,1.588-3.08,3.227c-0.103,1.639,0.359,3.262,1.386,4.867c0.992,1.605,0.992,2.92,0,3.945
	c-1.574,1.639-3.576,2.391-6.006,2.254l-5.39,0.205l-8.008-0.666c-2.806-0.717-5.39-1.076-7.752-1.076h-1.745l0.205-3.484
	c0.034-1.913-0.068-4.15-0.308-6.711c-0.24-2.561-0.068-4.918,0.513-7.07c0.548-2.186,1.762-3.296,3.645-3.33l7.238,0.615
	c2.43,0.41,4.483,0.051,6.16-1.076c1.985-1.4,3.149-3.347,3.491-5.84c0.308-2.493,0.291-4.986-0.051-7.48
	c-0.376-2.766-2.019-4.15-4.928-4.15l-7.444,0.615c-1.951,0.342-3.782,0.12-5.493-0.666c-2.464-1.161-3.611-3.159-3.439-5.994
	l0.873-15.01l24.538,0.359c2.704,0.137,4.466-0.444,5.287-1.742c0.821-1.332,1.01-2.732,0.565-4.201s-0.838-3.091-1.181-4.867
	c-0.376-1.844,0.103-3.176,1.437-3.996c1.335-0.922,3.268-1.247,5.801-0.973l7.649,0.359c2.567-0.034,4.791,0.717,6.674,2.254
	c2.122,1.673,2.413,3.637,0.873,5.891c-2.019,2.869-1.745,4.662,0.821,5.379l7.136,1.383l20.38,0.461l-0.308,10.143
	c-0.034,2.596,0.086,5.242,0.359,7.941c0.274,2.664,1.814,4.303,4.62,4.918c2.806,0.581,5.647,0.393,8.522-0.564
	c2.875-1.025,4.843-0.939,5.904,0.256C539.428,319.159,539.993,320.219,540.062,321.208"/>
<path id="SVGID_27_" fill="#FFFFFF" d="M385.287,292.724c2.635,0.751,3.662,2.544,3.08,5.379c-0.376,1.605-0.667,3.245-0.873,4.918
	c-0.342,2.698,0.873,4.372,3.645,5.02l7.084,1.691l7.29,0.922c2.635,0.102,5.082-0.273,7.341-1.127
	c2.498-0.99,3.114-2.818,1.848-5.482c-0.856-1.776-0.924-3.484-0.205-5.123c0.924-2.186,2.687-3.449,5.287-3.791l7.29-0.461
	l7.341,0.41c1.608-0.068,3.234-0.085,4.877-0.051l-0.873,15.01c-0.171,2.835,0.975,4.833,3.439,5.994
	c1.711,0.786,3.542,1.008,5.493,0.666l7.444-0.615c2.909,0,4.552,1.383,4.928,4.15c0.342,2.493,0.359,4.986,0.051,7.48
	c-0.342,2.493-1.506,4.44-3.491,5.84c-1.677,1.127-3.73,1.486-6.16,1.076l-7.238-0.615c-1.882,0.034-3.097,1.144-3.645,3.33
	c-0.582,2.152-0.753,4.508-0.513,7.07s0.342,4.799,0.308,6.711l-0.205,3.484l-5.595,0.102l-14.476,1.537
	c-3.046,0.205-5.595-0.376-7.649-1.742c-2.088-1.4-2.379-3.552-0.873-6.455c1.472-2.937,1.01-5.072-1.386-6.404
	c-2.156-1.264-4.552-1.844-7.187-1.742l-7.29,0.102c-2.361-0.034-4.398,0.837-6.109,2.613c-0.445,1.4-0.359,2.937,0.257,4.611
	c0.616,1.639,0.342,3.04-0.821,4.201c-1.506,1.537-3.508,2.647-6.006,3.33l-7.341,1.076l-7.546,0.205l-6.93-0.666
	c0.034-1.332,0.205-2.92,0.513-4.764c0.342-1.878,0.308-4.133-0.103-6.762l-1.283-6.66c-0.445-1.81-1.472-3.04-3.08-3.689
	c-1.643-0.751-3.73-0.956-6.263-0.615c-2.567,0.273-4.671,0.034-6.314-0.717c-1.951-0.922-3.08-2.527-3.388-4.816
	c-0.342-2.527-0.274-5.003,0.205-7.428c0.513-2.561,2.156-3.808,4.928-3.74l7.444,0.768c1.335,0.205,2.584,0.034,3.747-0.512
	c2.122-1.025,3.32-2.835,3.593-5.43l0.411-7.275c-0.034-2.527,0.034-4.867,0.205-7.018l-0.154-2.408l10.472-0.717l7.033-1.383
	C380.411,291.802,382.892,291.974,385.287,292.724"/>
<path id="SVGID_29_" fill="#FFFFFF" d="M307.361,287.961c-1.574-2.561-1.198-4.525,1.129-5.891c2.293-1.434,4.466-2.203,6.52-2.305
	l7.546-0.307c2.498-0.068,4.877,0.324,7.136,1.178c2.533,0.888,3.2,2.613,2.002,5.174l-1.54,2.869
	c-1.677,2.596-0.958,4.218,2.156,4.867l7.392,0.922l14.22,0.41l6.417-0.564l0.154,2.408c-0.171,2.152-0.24,4.491-0.205,7.018
	l-0.411,7.275c-0.274,2.596-1.472,4.406-3.593,5.43c-1.164,0.546-2.413,0.717-3.747,0.512l-7.444-0.768
	c-2.772-0.068-4.415,1.178-4.928,3.74c-0.479,2.425-0.548,4.901-0.205,7.428c0.308,2.288,1.437,3.893,3.388,4.816
	c1.643,0.751,3.747,0.99,6.314,0.717c2.533-0.342,4.62-0.137,6.263,0.615c1.608,0.649,2.635,1.878,3.08,3.689l1.283,6.66
	c0.411,2.63,0.445,4.884,0.103,6.762c-0.308,1.844-0.479,3.432-0.513,4.764l-21.92-0.154c-1.437-0.102-2.533-0.649-3.285-1.639
	c-1.3-1.708-1.574-3.654-0.821-5.84c0.89-2.698,0.12-4.611-2.31-5.738c-2.19-1.093-4.603-1.52-7.238-1.281l-7.546,0.205
	c-2.704-0.068-5.048,0.598-7.033,1.998c-1.266,0.888-1.985,2.049-2.156,3.484c-0.205,2.049,0.325,4.15,1.591,6.301
	c0.753,1.264,0.53,2.135-0.667,2.613c-2.225,0.82-4.535,1.383-6.93,1.691l-7.495,0.307l-7.033-0.922
	c-2.19-0.546-4.449-0.939-6.776-1.178H280v-60.912l9.446,0.82h11.242c2.43,0,4.552-0.564,6.365-1.691
	C308.833,292.281,308.936,290.453,307.361,287.961"/>
<path id="SVGID_31_" fill="#FFFFFF" d="M600.842,235.809l6.417-1.486l0.411-0.154c2.772-0.854,5.202-1.247,7.29-1.178l5.493,0.717
	l3.388,0.871c2.669,0.444,3.268,2.083,1.797,4.918c-1.437,2.698-1.266,4.781,0.513,6.25c1.814,1.503,3.97,2.459,6.468,2.869
	l6.93,0.922l7.546,0.307c2.669,0.034,4.877-0.7,6.622-2.203c0.582-0.478,0.685-1.144,0.308-1.998
	c-0.856-2.186-1.472-4.474-1.848-6.865c-0.445-3.04,0.753-4.679,3.593-4.918c2.498-0.273,4.997-0.324,7.495-0.154L680,234.99v60.451
	h-0.77c-2.464,0.683-4.962,0.99-7.495,0.922l-15.041,0.359c-2.704,0.102-4.637-0.956-5.801-3.176
	c-0.616-1.161-0.599-2.408,0.051-3.74c1.027-2.288,1.506-4.611,1.437-6.967c-0.068-1.264-0.667-2.015-1.797-2.254
	c-2.156-0.615-4.552-0.854-7.187-0.717l-7.084,0.307c-2.533,0.137-4.825,0.803-6.879,1.998c-2.259,1.229-2.892,3.159-1.899,5.789
	c0.513,1.4,0.599,2.835,0.257,4.303c-0.582,2.425-2.31,3.552-5.185,3.381c-2.43-0.137-4.86-0.188-7.29-0.154l-15.965-0.82v-0.922
	l-0.462-5.789c-0.205-2.391-0.308-4.816-0.308-7.275c0-2.357,0.548-4.611,1.643-6.762c1.129-2.322,3.217-3.227,6.263-2.715
	l7.29,0.564c2.498-0.034,4.209-1.212,5.133-3.535c0.89-2.254,1.095-4.662,0.616-7.223c-0.582-2.732-2.31-4.047-5.185-3.945
	c-2.396,0.034-4.62,0.376-6.673,1.025l-0.359,0.154c-2.943,0.888-4.979,0.137-6.109-2.254c-1.061-2.152-1.454-4.491-1.181-7.018
	c0.274-2.493,0.411-4.986,0.411-7.48C600.431,239.548,600.568,237.654,600.842,235.809"/>
<path id="SVGID_33_" fill="#FFFFFF" d="M558.747,219.415l9.189,1.076c3.491,0.581,4.894,2.169,4.209,4.764
	c-0.719,2.561-1.061,4.816-1.027,6.762c0,1.947,1.557,3.074,4.671,3.381l8.368,0.256c2.567-0.137,5.082-0.085,7.546,0.154
	c2.464,0.205,4.962,0.256,7.495,0.154l1.643-0.154c-0.274,1.844-0.411,3.74-0.411,5.686c0,2.493-0.137,4.986-0.411,7.48
	c-0.274,2.527,0.12,4.867,1.181,7.018c1.129,2.391,3.166,3.142,6.109,2.254l0.359-0.154c2.053-0.649,4.278-0.99,6.673-1.025
	c2.875-0.102,4.603,1.212,5.185,3.945c0.479,2.561,0.274,4.969-0.616,7.223c-0.924,2.322-2.635,3.501-5.133,3.535l-7.29-0.564
	c-3.046-0.512-5.133,0.393-6.263,2.715c-1.095,2.152-1.643,4.406-1.643,6.762c0,2.459,0.103,4.884,0.308,7.275l0.462,5.789v0.922
	l-20.791,1.23c-2.635,0.273-4.86-0.41-6.674-2.049c-2.19-2.015-2.481-3.945-0.873-5.789c0.616-0.683,1.129-1.503,1.54-2.459
	c1.3-3.005,0.684-4.85-1.848-5.533l-5.236-0.512l-7.341,0.461c-2.533,0.102-4.928,0.564-7.187,1.383
	c-2.533,0.888-3.987,2.459-4.363,4.713c-0.205,1.298-0.017,2.561,0.565,3.791c1.335,2.801,0.513,4.457-2.464,4.969l-16.94,0.666
	l-8.47-0.205c0.171-1.571,0.479-3.125,0.924-4.662l1.797-7.326c0.308-1.059,0.428-2.596,0.359-4.611
	c-0.103-2.937-1.574-4.44-4.415-4.508l-7.136-0.102c-2.635,0-4.945-0.529-6.93-1.588c-2.122-1.161-3.457-2.92-4.004-5.277
	c-0.548-2.459-0.599-4.901-0.154-7.326c0.171-1.264,0.787-2.169,1.848-2.715c2.088-1.23,4.449-1.605,7.084-1.127l7.033,1.127
	c2.396,0.342,4.124-0.478,5.185-2.459c1.061-1.981,1.198-4.337,0.411-7.07c-0.821-2.732-1.283-5.362-1.386-7.889
	c-0.103-1.571-0.051-3.091,0.154-4.559l9.086,0.564l15.811-0.564c1.643-0.307,2.772-1.161,3.388-2.561
	c0.582-1.4,0.667-3.33,0.257-5.789c-0.479-2.801,0.53-4.799,3.029-5.994C553.802,219.809,556.181,219.313,558.747,219.415"/>
<path id="SVGID_35_" fill="#FFFFFF" d="M437.906,234.425l26.335,0.922c3.046,0.171,4.398,1.417,4.055,3.74
	c-0.376,2.288-0.479,4.525-0.308,6.711c0.137,2.117,1.899,3.484,5.287,4.098l8.727,1.076l6.982-0.717
	c2.225-0.649,2.943-1.981,2.156-3.996l-1.899-5.02c-0.479-1.298,0.051-2.63,1.591-3.996c1.848-1.708,4.141-2.425,6.879-2.152
	l1.951-0.154l20.38,0.307c-0.205,1.469-0.257,2.988-0.154,4.559c0.103,2.527,0.565,5.157,1.386,7.889
	c0.787,2.732,0.65,5.089-0.411,7.07c-1.061,1.981-2.789,2.801-5.185,2.459l-7.033-1.127c-2.635-0.478-4.997-0.102-7.084,1.127
	c-1.061,0.546-1.677,1.452-1.848,2.715c-0.445,2.425-0.394,4.867,0.154,7.326c0.548,2.357,1.882,4.115,4.004,5.277
	c1.985,1.059,4.295,1.588,6.93,1.588l7.136,0.102c2.841,0.068,4.312,1.571,4.415,4.508c0.068,2.015-0.051,3.552-0.359,4.611
	l-1.797,7.326c-0.445,1.537-0.753,3.091-0.924,4.662l-20.38-0.461l-7.136-1.383c-2.567-0.717-2.841-2.51-0.821-5.379
	c1.54-2.254,1.249-4.218-0.873-5.891c-1.882-1.537-4.107-2.288-6.674-2.254l-7.649-0.359c-2.533-0.273-4.466,0.051-5.801,0.973
	c-1.335,0.82-1.814,2.152-1.437,3.996c0.342,1.776,0.736,3.398,1.181,4.867s0.257,2.869-0.565,4.201
	c-0.821,1.298-2.584,1.878-5.287,1.742l-24.538-0.359c0-2.391-0.205-4.662-0.616-6.814c-0.445-2.254-0.719-4.594-0.821-7.018
	c-0.068-2.493,0.838-4.594,2.721-6.301c1.78-1.195,3.953-1.725,6.52-1.588c2.601,0.068,4.997,0.546,7.187,1.434
	c2.361,0.854,4.004-0.051,4.928-2.715c0.787-2.254,1.164-4.696,1.129-7.326c-0.034-2.732-0.873-4.935-2.515-6.609
	c-1.129-1.127-2.464-1.793-4.004-1.998c-2.464-0.41-4.825-0.376-7.084,0.102c-2.396,0.478-4.244-0.085-5.544-1.691
	c-1.54-1.947-2.173-4.235-1.899-6.865c0.205-2.596,0.017-5.055-0.565-7.377C438.248,238.387,437.974,236.44,437.906,234.425"/>
<path id="SVGID_37_" fill="#FFFFFF" d="M427.485,234.324c2.498-0.034,4.997-0.017,7.495,0.051l2.926,0.051
	c0.068,2.015,0.342,3.962,0.821,5.84c0.582,2.322,0.77,4.781,0.565,7.377c-0.274,2.63,0.359,4.918,1.899,6.865
	c1.3,1.605,3.149,2.169,5.544,1.691c2.259-0.478,4.62-0.512,7.084-0.102c1.54,0.205,2.875,0.871,4.004,1.998
	c1.643,1.674,2.481,3.876,2.515,6.609c0.034,2.63-0.342,5.072-1.129,7.326c-0.924,2.664-2.567,3.569-4.928,2.715
	c-2.19-0.888-4.586-1.366-7.187-1.434c-2.567-0.137-4.74,0.393-6.52,1.588c-1.882,1.708-2.789,3.808-2.721,6.301
	c0.103,2.425,0.376,4.764,0.821,7.018c0.411,2.152,0.616,4.423,0.616,6.814c-1.643-0.034-3.268-0.017-4.877,0.051l-7.341-0.41
	l-7.29,0.461c-2.601,0.342-4.363,1.605-5.287,3.791c-0.719,1.639-0.65,3.347,0.205,5.123c1.266,2.664,0.65,4.491-1.848,5.482
	c-2.259,0.854-4.706,1.23-7.341,1.127l-7.29-0.922l-7.084-1.691c-2.772-0.649-3.987-2.322-3.645-5.02
	c0.205-1.673,0.496-3.313,0.873-4.918c0.582-2.835-0.445-4.628-3.08-5.379c-2.396-0.751-4.877-0.922-7.444-0.512l-7.033,1.383
	l-10.472,0.717c-0.068-1.639,0.034-3.142,0.308-4.508c0.376-2.186,0.548-4.508,0.513-6.967c-0.034-2.527-0.65-4.269-1.848-5.225
	c-1.232-1.025-2.139-1.537-2.721-1.537c-2.019-0.205-3.953-0.922-5.801-2.152c-1.848-1.23-3.525-1.947-5.031-2.152l-3.953-0.717
	c-1.129-0.273-2.002-1.452-2.618-3.535l0.051-2.971c0.034-2.698,0.702-4.884,2.002-6.557c1.266-1.708,3.251-2.544,5.955-2.51
	c2.567-0.068,4.997,0.239,7.29,0.922c1.916,0.512,3.508,0.12,4.774-1.178c1.403-1.434,2.053-3.449,1.951-6.045l-1.386-14.088h2.207
	l15.76-1.486l8.214,0.307c2.977,0.205,3.936,1.759,2.875,4.662c-1.095,2.869-1.266,5.567-0.513,8.094
	c1.882,1.537,4.004,2.391,6.366,2.561l7.341,0.256l7.392-0.82c0.376-0.102,0.667-0.41,0.873-0.922
	c0.719-2.357,0.787-4.645,0.205-6.865c-0.684-2.698,0.188-4.559,2.618-5.584c2.156-0.99,4.552-1.383,7.187-1.178L427.485,234.324"/>
<path id="SVGID_39_" fill="#FFFFFF" d="M280,235.348l22.331-1.434c2.464-0.273,4.757,0.324,6.879,1.793
	c2.053,1.4,2.618,3.057,1.694,4.969c-0.924,1.913-1.591,3.996-2.002,6.25c-0.411,2.22,0.924,3.364,4.004,3.432h7.546
	c2.567-0.068,5.031-0.41,7.392-1.025c1.951-0.546,2.567-2.015,1.848-4.406c-0.753-2.425-0.821-4.389-0.205-5.891
	c0.65-1.571,1.899-2.579,3.747-3.023l6.468-0.666l20.123-0.256l1.386,14.088c0.103,2.596-0.548,4.611-1.951,6.045
	c-1.266,1.298-2.858,1.691-4.774,1.178c-2.293-0.683-4.723-0.99-7.29-0.922c-2.704-0.034-4.689,0.803-5.955,2.51
	c-1.3,1.673-1.968,3.859-2.002,6.557l-0.051,2.971c0.616,2.083,1.489,3.262,2.618,3.535l3.953,0.717
	c1.506,0.205,3.183,0.922,5.031,2.152c1.848,1.229,3.782,1.947,5.801,2.152c0.582,0,1.489,0.512,2.721,1.537
	c1.198,0.956,1.814,2.698,1.848,5.225c0.034,2.459-0.137,4.781-0.513,6.967c-0.274,1.366-0.376,2.869-0.308,4.508l-6.417,0.564
	l-14.22-0.41l-7.392-0.922c-3.114-0.649-3.833-2.271-2.156-4.867l1.54-2.869c1.198-2.561,0.53-4.286-2.002-5.174
	c-2.259-0.854-4.637-1.247-7.136-1.178l-7.546,0.307c-2.053,0.102-4.227,0.871-6.52,2.305c-2.327,1.366-2.704,3.33-1.129,5.891
	c1.574,2.493,1.472,4.32-0.308,5.482c-1.814,1.127-3.936,1.691-6.365,1.691h-11.242L280,294.313V235.348"/>
<path id="SVGID_41_" fill="#FFFFFF" d="M599.867,176.126l-0.308-1.127H680v59.99l-16.735-1.281c-2.498-0.171-4.997-0.12-7.495,0.154
	c-2.841,0.239-4.038,1.878-3.593,4.918c0.376,2.391,0.992,4.679,1.848,6.865c0.376,0.854,0.274,1.52-0.308,1.998
	c-1.745,1.503-3.953,2.237-6.622,2.203l-7.546-0.307l-6.93-0.922c-2.498-0.41-4.654-1.366-6.468-2.869
	c-1.78-1.469-1.951-3.552-0.513-6.25c1.472-2.835,0.873-4.474-1.797-4.918l-3.388-0.871l-5.493-0.717
	c-2.088-0.068-4.517,0.324-7.29,1.178l-0.411,0.154l-6.417,1.486l0.257-1.639c0.445-2.459,0.684-4.952,0.719-7.48l0.051-7.326
	c0.034-2.801-1.198-4.525-3.696-5.174c-2.464-0.717-4.877-0.768-7.238-0.154l-7.392,0.768c-2.43-0.068-3.747-1.178-3.953-3.33
	c-0.24-2.152-0.274-4.457-0.103-6.916c0.171-2.527,0.873-4.662,2.105-6.404c1.232-1.81,2.755-2.886,4.569-3.227
	c2.327-0.581,4.723-0.546,7.187,0.102l4.261,0.512c2.396-0.068,3.593-1.622,3.593-4.662l-0.308-7.48
	c-0.171-2.322-0.53-4.611-1.078-6.865L599.867,176.126"/>
<path id="SVGID_43_" fill="#FFFFFF" d="M558.747,219.415c-2.567-0.102-4.945,0.393-7.136,1.486
	c-2.498,1.195-3.508,3.193-3.029,5.994c0.411,2.459,0.325,4.389-0.257,5.789c-0.616,1.4-1.745,2.254-3.388,2.561l-15.811,0.564
	l-9.086-0.564l0.513-2.766c0.513-2.254,0.907-4.628,1.181-7.121c0.24-2.527,0.308-4.918,0.205-7.172
	c-0.137-2.357-1.831-3.535-5.082-3.535l-8.522,0.41c-2.088,0.205-3.816-0.085-5.185-0.871c-1.095-0.615-1.865-1.605-2.31-2.971
	c-0.787-2.288-1.078-4.696-0.873-7.223c0.137-2.425,0.958-4.525,2.464-6.301c1.574-1.844,3.73-2.493,6.468-1.947l8.214,0.871
	c2.704-0.717,4.038-2.51,4.004-5.379c-0.068-2.869-0.291-5.567-0.667-8.094l-1.128-8.147h80.236l0.308,1.127l-0.051,0.41
	c0.548,2.254,0.907,4.542,1.078,6.865l0.308,7.48c0,3.04-1.198,4.594-3.593,4.662l-4.261-0.512c-2.464-0.649-4.86-0.683-7.187-0.102
	c-1.814,0.342-3.337,1.417-4.569,3.227c-1.232,1.742-1.934,3.876-2.105,6.404c-0.171,2.459-0.137,4.764,0.103,6.916
	c0.205,2.152,1.523,3.262,3.953,3.33l7.392-0.768c2.361-0.615,4.774-0.564,7.238,0.154c2.498,0.649,3.73,2.374,3.696,5.174
	l-0.051,7.326c-0.034,2.527-0.274,5.02-0.719,7.48l-0.257,1.639l-1.643,0.154c-2.532,0.102-5.031,0.051-7.495-0.154
	c-2.464-0.239-4.979-0.29-7.546-0.154l-8.368-0.256c-3.114-0.307-4.671-1.434-4.671-3.381c-0.034-1.947,0.308-4.201,1.027-6.762
	c0.684-2.596-0.719-4.184-4.209-4.764L558.747,219.415"/>
<path id="SVGID_45_" fill="#FFFFFF" d="M455.924,197.591c-1.917-1.434-4.209-1.998-6.879-1.691c-2.635,0.239-4.689-0.666-6.16-2.715
	c-1.403-2.015-2.361-4.115-2.875-6.301l-0.616-3.535c-0.24-2.459-0.359-4.935-0.359-7.428l-0.103-0.41l-0.051-0.512h80.441
	l1.129,8.145c0.376,2.527,0.599,5.225,0.667,8.094c0.034,2.869-1.3,4.662-4.004,5.379l-8.214-0.871
	c-2.738-0.546-4.894,0.102-6.468,1.947c-1.506,1.776-2.327,3.876-2.464,6.301c-0.205,2.527,0.086,4.935,0.873,7.223
	c0.445,1.366,1.215,2.357,2.31,2.971c1.369,0.786,3.097,1.076,5.185,0.871l8.522-0.41c3.251,0,4.945,1.178,5.082,3.535
	c0.103,2.254,0.034,4.645-0.205,7.172c-0.274,2.493-0.667,4.867-1.181,7.121l-0.513,2.766l-20.38-0.307l-1.951,0.154
	c-2.738-0.273-5.031,0.444-6.879,2.152c-1.54,1.366-2.07,2.698-1.591,3.996l1.899,5.02c0.787,2.015,0.068,3.347-2.156,3.996
	l-6.982,0.717l-8.727-1.076c-3.388-0.615-5.151-1.981-5.287-4.098c-0.171-2.186-0.068-4.423,0.308-6.711
	c0.342-2.322-1.01-3.569-4.055-3.74l-26.335-0.922v-1.383c0-2.561,0.103-5.072,0.308-7.531c0.171-2.459,0.479-4.884,0.924-7.275
	c0.548-3.005,2.105-4.525,4.671-4.559l7.546,0.154c2.738,0.171,4.552-0.837,5.441-3.023c0.856-2.049,1.403-4.372,1.643-6.967
	C458.713,201.109,457.875,199.026,455.924,197.591"/>
<path id="SVGID_47_" fill="#FFFFFF" d="M455.924,197.591c1.951,1.434,2.789,3.518,2.515,6.25c-0.24,2.596-0.787,4.918-1.643,6.967
	c-0.89,2.186-2.704,3.193-5.441,3.023l-7.546-0.154c-2.567,0.034-4.124,1.554-4.671,4.559c-0.445,2.391-0.753,4.816-0.924,7.275
	c-0.205,2.459-0.308,4.969-0.308,7.531v1.383l-2.926-0.051c-2.498-0.068-4.997-0.085-7.495-0.051l-7.136-0.205
	c-2.635-0.205-5.031,0.188-7.187,1.178c-2.43,1.025-3.303,2.886-2.618,5.584c0.582,2.22,0.513,4.508-0.205,6.865
	c-0.205,0.512-0.496,0.82-0.873,0.922l-7.392,0.82l-7.341-0.256c-2.361-0.171-4.483-1.025-6.366-2.561
	c-0.753-2.527-0.582-5.225,0.513-8.094c1.061-2.903,0.103-4.457-2.875-4.662l-8.214-0.307l-15.76,1.486h-2.207
	c0-1.434,0.171-2.92,0.513-4.457c0.513-2.425,0.821-4.901,0.924-7.428c0.034-1.981-0.376-3.671-1.232-5.072
	c-1.266-2.186-3.234-3.21-5.903-3.074l-7.341,0.461c-2.533,0.273-4.774-0.359-6.725-1.895c-1.3-1.059-2.105-2.254-2.413-3.586
	c-0.513-2.357-0.342-4.696,0.513-7.018c0.856-2.391,2.088-4.337,3.696-5.84c1.574-1.639,3.662-2.391,6.263-2.254l7.752,0.205
	c2.875,0.034,4.432-1.247,4.671-3.842c0.24-2.527,0.222-5.02-0.051-7.48l-0.975-7.531l-0.409-1.283h79.774l0.051,0.512l0.103,0.41
	c0,2.493,0.12,4.969,0.359,7.428l0.616,3.535c0.513,2.186,1.472,4.286,2.875,6.301c1.472,2.049,3.525,2.954,6.16,2.715
	C451.715,195.593,454.008,196.158,455.924,197.591"/>
<path id="SVGID_49_" fill="#FFFFFF" d="M359.517,176.281l0.975,7.531c0.274,2.459,0.291,4.952,0.051,7.48
	c-0.24,2.596-1.797,3.876-4.671,3.842l-7.752-0.205c-2.601-0.137-4.689,0.615-6.263,2.254c-1.608,1.503-2.841,3.449-3.696,5.84
	c-0.856,2.322-1.027,4.662-0.513,7.018c0.308,1.332,1.112,2.527,2.413,3.586c1.951,1.537,4.192,2.169,6.725,1.895l7.341-0.461
	c2.669-0.137,4.637,0.888,5.903,3.074c0.856,1.4,1.266,3.091,1.232,5.072c-0.103,2.527-0.411,5.003-0.924,7.428
	c-0.342,1.537-0.513,3.023-0.513,4.457l-20.123,0.256l-6.468,0.666c-1.848,0.444-3.097,1.452-3.747,3.023
	c-0.616,1.503-0.548,3.467,0.205,5.891c0.719,2.391,0.103,3.859-1.848,4.406c-2.361,0.615-4.825,0.956-7.392,1.025h-7.546
	c-3.08-0.068-4.415-1.212-4.004-3.432c0.411-2.254,1.078-4.337,2.002-6.25s0.359-3.569-1.694-4.969
	c-2.122-1.469-4.415-2.066-6.879-1.793L280,235.348v-60.348h79.107L359.517,176.281"/>
<image overflow="visible" width="800" height="600" xlink:href="../img/image001.jpg"  transform="matrix(0.5 0 0 0.5 280 175)">
</image>
</svg>
